if (_typeface_js && _typeface_js.loadFace) _typeface_js.loadFace({"glyphs":{"S":{"x_min":30.5625,"x_max":566.71875,"ha":597,"o":"m 566 273 q 547 368 566 325 q 498 448 529 411 q 429 520 468 486 q 351 587 390 554 q 281 646 315 616 q 221 707 247 676 q 179 771 195 738 q 163 841 163 804 q 177 908 163 877 q 213 960 190 938 q 267 994 236 982 q 334 1007 298 1007 q 397 993 369 1007 q 447 959 426 980 q 484 908 469 937 q 505 845 498 879 q 511 842 506 841 q 516 847 516 843 q 517 852 516 850 q 518 857 518 854 q 529 945 525 901 q 538 1034 534 990 q 534 1040 538 1040 q 398 1058 470 1058 q 284 1045 345 1058 q 169 1002 222 1032 q 80 927 116 973 q 44 818 44 882 q 63 734 44 776 q 113 652 83 693 q 183 574 144 612 q 261 498 222 536 q 334 427 298 463 q 399 355 370 391 q 445 282 427 319 q 462 211 462 245 q 443 142 462 173 q 395 89 425 111 q 330 56 366 68 q 259 44 294 44 q 183 56 218 44 q 122 90 148 68 q 81 145 95 112 q 66 222 66 179 l 66 237 q 61 242 66 241 q 55 238 56 243 q 50 215 52 227 q 45 193 48 204 q 35 150 40 172 q 30 102 30 127 q 46 45 30 68 q 87 7 62 22 q 143 -13 112 -6 q 202 -19 173 -19 q 325 1 261 -19 q 443 61 390 22 q 531 153 497 100 q 566 273 566 206 "},"/":{"x_min":30.5625,"x_max":619.5,"ha":650,"o":"m 619 934 l 618 943 l 568 963 q 561 961 563 966 q 503 870 531 916 q 447 779 475 825 q 240 447 343 611 q 31 118 137 283 q 31 115 31 116 q 30 113 30 115 q 52 84 37 97 q 83 69 66 72 q 88 72 86 69 q 355 503 223 288 q 619 934 487 718 "},"y":{"x_min":31.15625,"x_max":761.171875,"ha":792,"o":"m 761 848 l 759 859 q 752 859 757 859 q 745 858 748 858 q 697 854 722 855 q 645 852 672 852 q 606 854 626 852 q 568 859 586 855 q 562 856 563 861 q 565 848 561 851 q 584 834 576 843 q 591 813 591 826 q 579 780 591 805 q 550 722 568 755 q 511 655 531 690 q 473 591 490 620 q 436 529 454 558 q 409 484 418 500 q 358 569 390 516 q 295 674 326 622 q 243 767 265 726 q 220 818 220 808 q 228 833 220 826 q 244 847 236 840 q 245 847 245 848 q 245 847 244 845 q 247 853 248 850 q 241 857 245 857 q 161 852 200 852 q 99 854 129 852 q 36 859 69 857 q 31 854 31 859 q 34 848 30 850 q 83 813 52 843 q 148 739 113 783 q 218 644 183 695 q 283 544 254 593 q 330 456 312 495 q 348 398 348 418 l 348 187 q 329 141 348 161 q 287 112 311 122 q 284 105 283 109 q 288 101 284 101 q 356 104 323 104 q 427 104 391 104 q 483 104 455 104 q 540 102 512 104 q 545 107 544 102 q 541 113 545 112 q 511 122 527 116 q 480 136 494 127 q 456 157 466 145 q 447 186 447 169 l 447 413 q 464 476 447 437 q 509 561 481 515 q 570 654 536 607 q 641 742 605 701 q 707 811 676 783 q 761 848 738 840 "},"g":{"x_min":30.5625,"x_max":782,"ha":813,"o":"m 782 468 l 780 479 q 537 483 659 483 q 531 479 533 483 q 534 473 530 476 q 553 465 544 468 q 569 459 562 462 q 602 445 587 454 q 616 413 616 437 l 616 183 q 557 153 593 162 q 490 144 522 144 q 345 174 412 144 q 227 255 277 204 q 149 376 177 306 q 120 523 120 445 q 146 653 120 594 q 217 754 172 712 q 323 820 262 797 q 455 844 384 844 q 535 834 497 844 q 604 804 573 825 q 656 751 636 783 q 686 675 677 719 q 691 670 687 670 q 697 675 695 670 q 699 690 698 682 q 701 705 700 698 q 712 775 707 741 q 718 847 718 809 q 712 852 718 852 q 677 857 694 855 q 641 862 661 859 q 545 875 594 869 q 448 882 497 882 q 286 857 362 882 q 152 785 209 833 q 63 666 95 737 q 30 504 30 595 q 63 322 30 400 q 154 193 95 244 q 295 117 213 143 q 473 91 376 91 q 597 100 534 91 q 711 148 659 109 q 713 152 713 151 l 713 411 q 734 450 713 438 q 782 468 755 462 "},"²":{"x_min":0,"x_max":0,"ha":501},"ƒ":{"x_min":30.5625,"x_max":687.828125,"ha":720,"o":"m 687 854 l 686 897 q 634 928 662 916 q 573 940 605 940 q 454 897 509 940 q 357 791 398 854 q 293 659 316 729 q 269 533 269 588 q 270 515 269 523 q 272 497 270 506 q 259 495 265 495 q 247 494 254 494 q 211 497 231 494 q 172 497 191 500 q 141 486 154 495 q 129 452 129 477 q 198 456 163 455 q 268 452 233 456 q 245 341 250 401 q 237 218 240 280 q 228 96 234 156 q 202 -15 222 36 q 141 -106 181 -68 q 30 -163 101 -145 q 171 -133 118 -163 q 256 -52 225 -102 q 300 61 287 -2 q 320 195 313 126 q 332 331 326 263 q 354 456 338 400 q 401 462 375 462 q 454 458 429 462 q 508 454 480 454 q 569 502 561 454 q 527 498 556 500 q 463 497 497 497 q 400 498 430 497 q 358 502 370 500 q 351 527 352 513 q 350 552 350 540 q 366 645 350 587 q 411 758 383 702 q 476 854 438 813 q 555 894 513 894 q 597 879 579 894 q 627 841 615 863 q 647 793 640 818 q 659 750 655 768 q 683 799 677 769 q 687 854 688 829 "},"e":{"x_min":31.109375,"x_max":483.375,"ha":514,"o":"m 483 236 l 472 238 q 427 165 461 191 q 344 140 393 140 q 270 156 308 140 q 211 202 231 172 l 211 488 l 252 488 q 284 488 263 488 q 327 486 305 488 q 367 481 348 484 q 393 470 386 477 q 402 455 400 463 q 408 438 405 447 q 413 423 411 430 q 422 409 415 416 q 428 408 425 406 q 431 413 431 409 q 436 448 434 430 q 440 483 437 466 q 445 519 443 500 q 448 555 447 538 q 441 561 448 563 q 411 548 426 556 q 388 540 400 544 q 370 536 377 536 l 209 536 l 209 820 l 319 820 q 394 805 363 820 q 427 741 425 790 q 432 736 427 737 q 438 740 437 736 q 452 803 445 772 q 462 870 458 834 q 455 876 462 879 q 443 871 450 873 q 431 866 437 869 l 36 866 q 31 863 31 866 q 33 857 30 859 q 54 846 44 850 q 73 840 65 843 q 102 826 88 834 q 115 790 115 818 l 115 212 q 113 177 115 194 q 104 145 111 159 q 84 122 97 131 q 50 113 70 113 l 50 102 q 125 104 87 104 q 201 105 163 105 q 255 104 229 105 q 309 104 281 104 q 374 103 341 104 q 438 102 406 102 q 456 106 445 102 l 458 108 q 463 112 463 108 q 472 174 468 144 q 483 236 476 204 "},"J":{"x_min":-37.5,"x_max":369.46875,"ha":401,"o":"m 369 1012 l 368 1023 l 325 1023 l 215 1023 l 158 1023 q 102 1024 130 1023 q 43 1027 73 1025 q 37 1024 38 1027 q 40 1018 36 1020 q 67 1004 55 1008 q 90 997 79 1000 q 112 988 101 993 q 131 975 123 983 q 145 955 140 968 q 150 923 150 943 l 150 101 q 139 -31 150 26 q 106 -138 129 -88 q 48 -232 83 -187 q -36 -329 13 -277 q -36 -337 -38 -333 q -29 -338 -33 -341 q 87 -265 31 -309 q 184 -168 143 -222 q 251 -49 226 -113 q 276 87 276 15 l 276 925 q 302 988 276 972 q 369 1012 329 1004 "},"»":{"x_min":30.5625,"x_max":501.421875,"ha":532,"o":"m 501 551 q 288 780 405 673 q 267 752 277 765 q 245 726 256 740 q 338 638 294 683 q 426 547 383 594 q 385 499 412 530 q 329 433 358 468 q 279 366 301 398 q 252 318 256 334 q 380 431 318 375 q 501 551 443 488 m 284 551 q 185 669 236 612 q 79 780 134 726 q 54 756 66 769 q 30 732 43 743 q 119 641 75 686 q 208 551 163 597 q 170 502 197 534 q 114 434 143 469 q 63 367 86 398 q 40 322 41 336 l 43 318 q 166 431 105 375 q 284 551 227 488 "},"©":{"x_min":30.5625,"x_max":918.125,"ha":949,"o":"m 918 486 q 887 655 918 569 q 801 812 857 741 q 670 928 745 883 q 504 973 594 973 q 334 941 419 973 q 182 853 250 909 q 72 720 115 797 q 30 554 30 644 q 61 386 30 473 q 147 227 93 300 q 278 108 202 155 q 441 61 354 61 q 613 93 527 61 q 766 181 698 125 q 875 316 833 238 q 918 486 918 394 m 854 573 q 827 427 854 497 q 755 298 801 356 q 647 195 709 240 q 515 127 586 151 q 356 172 431 136 q 225 266 281 209 q 136 399 169 323 q 102 561 102 475 q 135 712 102 647 q 222 822 168 777 q 350 889 277 866 q 504 912 423 912 q 644 888 580 912 q 754 821 708 865 q 827 714 801 777 q 854 573 854 651 m 665 755 l 662 759 q 602 785 634 779 q 538 791 570 791 q 426 775 484 791 q 319 725 368 758 q 238 645 270 693 q 206 534 206 597 q 234 425 206 475 q 306 341 262 376 q 406 286 351 305 q 516 266 461 266 q 566 272 541 266 q 611 290 591 277 q 643 322 630 302 q 655 372 655 343 q 655 387 655 380 q 654 402 655 395 q 648 406 652 406 q 643 402 644 406 q 595 337 627 362 q 518 312 562 312 q 434 334 475 312 q 362 392 394 356 q 311 470 330 427 q 291 555 291 513 q 311 631 291 597 q 360 689 330 665 q 428 727 390 713 q 504 741 466 741 q 591 713 554 741 q 637 634 627 684 q 641 630 638 630 q 648 633 645 630 q 661 679 659 655 q 663 726 663 702 q 664 741 663 733 q 665 755 665 748 "},"\f":{"x_min":30.5625,"x_max":327.796875,"ha":358,"o":"m 327 1170 q 291 1152 309 1165 q 254 1125 272 1138 q 219 1101 236 1112 q 187 1087 202 1090 q 124 1126 151 1098 q 68 1176 97 1154 q 47 1156 56 1166 q 30 1133 37 1145 q 104 1076 66 1104 q 181 1023 141 1048 q 259 1093 222 1057 q 327 1170 295 1130 "},"«":{"x_min":30.5625,"x_max":502.8125,"ha":533,"o":"m 502 366 q 413 456 458 412 q 323 547 368 501 q 361 595 333 562 q 418 665 388 629 q 469 732 447 701 q 491 776 491 763 l 490 780 q 366 665 427 722 q 245 547 304 608 q 345 428 294 486 q 454 318 397 370 q 502 366 477 343 m 286 372 q 193 459 238 415 q 106 552 148 504 q 200 661 152 608 q 280 780 248 715 q 152 666 215 723 q 30 547 90 609 q 131 427 76 483 q 243 318 186 370 l 286 372 "},"D":{"x_min":30.5625,"x_max":1063.96875,"ha":1095,"o":"m 1063 531 q 1063 547 1063 540 q 1062 563 1063 555 q 1061 580 1061 572 q 1061 597 1061 588 q 1014 769 1061 688 q 895 909 968 850 q 732 1003 822 969 q 556 1037 643 1037 q 481 1036 520 1037 q 406 1033 443 1034 q 331 1028 369 1030 q 255 1026 294 1026 q 196 1027 226 1026 q 136 1032 166 1029 q 86 1034 112 1033 q 36 1034 61 1034 q 31 1027 27 1034 q 47 1015 37 1018 q 72 1009 58 1012 q 97 1004 84 1007 q 120 994 109 1001 q 136 973 130 987 q 143 936 143 959 l 143 156 q 140 104 143 126 q 127 65 137 81 q 99 38 118 50 q 50 20 80 27 q 46 14 45 19 q 51 9 47 9 q 165 8 108 12 q 279 0 223 4 q 377 -6 327 -4 q 475 -9 426 -9 q 715 22 607 -9 q 901 122 823 55 q 1021 291 979 188 q 1063 531 1063 393 m 938 479 q 904 289 938 370 q 809 154 870 208 q 661 72 747 100 q 470 45 575 45 q 382 50 420 45 q 319 72 344 55 q 281 122 294 90 q 269 209 269 155 l 269 958 q 344 976 306 970 q 420 982 381 982 q 629 947 534 982 q 793 847 725 912 q 900 688 862 782 q 938 479 938 595 "},"∙":{"x_min":30.5625,"x_max":148.625,"ha":179,"o":"m 148 529 q 130 576 148 554 q 86 598 112 598 q 45 580 61 598 q 30 538 30 562 q 43 493 30 516 q 81 469 56 469 q 127 486 105 469 q 148 529 148 504 "},"":{"x_min":0,"x_max":0,"ha":308},"w":{"x_min":30.5625,"x_max":1066.75,"ha":1097,"o":"m 1066 844 l 1066 855 q 1029 854 1047 854 q 994 854 1012 854 q 922 855 958 854 q 851 859 887 857 q 846 854 847 859 q 850 848 845 850 q 867 844 857 847 q 887 836 877 841 q 904 823 897 830 q 911 808 911 816 q 899 681 911 751 q 869 537 887 611 q 829 391 851 463 q 790 261 808 319 q 759 352 773 308 q 729 444 744 397 q 654 657 693 551 q 570 858 616 762 q 564 860 568 861 q 559 857 561 859 q 444 563 500 708 q 333 268 388 419 q 318 345 325 311 q 302 423 312 379 q 263 618 283 522 q 233 816 244 715 q 259 836 244 827 q 290 850 275 844 q 293 857 294 851 q 287 861 291 862 q 175 852 229 852 q 118 856 145 852 q 62 862 91 859 q 50 863 55 863 q 37 865 44 863 q 31 862 33 866 q 33 855 29 858 q 46 847 40 851 q 58 841 52 844 q 95 818 80 829 q 125 776 109 807 q 185 600 158 709 q 236 375 212 491 q 268 221 251 295 q 302 90 284 147 q 307 85 304 86 q 313 88 311 84 q 378 247 347 165 q 438 406 409 329 q 491 545 465 476 q 547 683 518 615 q 581 586 566 632 q 613 488 595 541 q 685 283 648 384 q 770 88 722 181 q 777 86 773 86 q 782 90 780 87 q 800 144 790 111 q 823 220 811 177 q 849 311 836 262 q 876 411 862 359 q 912 543 894 477 q 947 664 930 609 q 978 759 963 719 q 1002 811 993 798 q 1032 834 1013 822 q 1066 844 1050 847 "},"$":{"x_min":30.5625,"x_max":481.984375,"ha":513,"o":"m 481 308 q 468 391 481 351 q 429 463 454 430 q 370 520 404 495 q 297 561 336 545 q 298 577 298 570 q 300 594 298 584 q 311 731 305 662 q 327 869 316 800 q 400 834 368 862 q 431 765 431 807 q 429 743 431 757 q 432 736 427 738 q 438 738 437 734 q 453 796 450 766 q 456 858 456 826 q 456 873 456 866 q 455 890 456 882 q 452 895 455 895 q 406 915 430 907 q 354 920 381 923 q 342 920 348 920 q 330 919 336 919 q 333 943 333 933 q 334 965 333 952 q 336 988 336 976 q 340 1015 337 1001 q 334 1022 340 1022 q 309 1016 318 1022 q 294 998 300 1009 q 287 975 288 987 q 286 950 286 962 l 286 913 q 199 902 240 915 q 128 862 158 888 q 80 797 98 836 q 62 711 62 758 q 113 564 62 626 q 241 475 165 502 q 229 308 234 391 q 215 141 223 225 q 154 156 181 141 q 109 194 127 170 q 80 247 90 218 q 70 308 70 276 q 62 312 70 318 l 45 301 q 32 247 34 276 q 30 190 30 218 q 30 170 30 180 q 31 151 30 162 q 34 147 31 147 q 118 108 75 125 q 206 86 162 91 q 204 65 204 75 q 202 44 204 56 q 200 22 201 33 q 197 -2 200 11 q 202 -9 197 -9 l 216 -11 q 246 11 240 -11 q 255 56 252 33 q 258 73 256 65 q 262 88 259 81 q 348 109 308 93 q 418 154 388 126 q 464 220 447 181 q 481 308 481 259 m 277 868 q 252 594 261 732 q 178 655 208 616 q 148 745 148 694 q 186 834 148 802 q 277 868 223 866 m 393 281 q 355 188 393 223 q 265 144 318 152 q 270 219 268 183 q 276 295 273 255 q 281 368 279 331 q 287 441 284 405 q 363 375 333 418 q 393 281 393 333 "},"\\":{"x_min":30.84375,"x_max":620.890625,"ha":651,"o":"m 620 113 l 619 118 q 411 447 513 283 q 204 779 308 611 q 147 870 176 825 q 90 961 119 916 q 83 963 87 966 l 33 943 q 31 934 29 940 q 295 503 163 718 q 562 72 427 288 q 568 69 565 69 q 599 84 584 72 q 620 113 613 97 "},"Ç":{"x_min":31.609375,"x_max":222.234375,"ha":253,"o":"m 222 -44 q 196 10 222 -5 q 137 26 170 26 l 123 26 l 173 75 q 175 81 176 77 q 170 84 173 84 q 159 86 165 86 q 148 87 155 86 l 151 93 q 150 99 154 95 q 143 100 145 102 q 95 58 118 75 q 68 35 81 47 q 43 9 55 23 q 41 3 40 6 q 47 0 43 0 q 110 -21 83 -1 q 137 -79 137 -41 q 110 -139 137 -118 q 47 -161 83 -161 l 37 -159 q 31 -163 33 -159 q 34 -170 30 -168 q 83 -180 55 -180 q 134 -168 109 -180 q 179 -138 159 -156 q 210 -94 198 -119 q 222 -44 222 -69 "},"-":{"x_min":30.5625,"x_max":391.703125,"ha":422,"o":"m 391 502 l 391 513 q 359 518 383 516 q 304 520 336 519 q 237 520 273 520 q 168 520 201 520 l 54 520 q 48 516 48 520 q 37 475 41 497 q 30 430 33 452 q 37 425 30 422 q 134 452 84 443 q 233 469 184 462 q 313 484 273 476 q 391 502 352 491 "},"Q":{"x_min":30.5625,"x_max":2005.71875,"ha":1153,"o":"m 2005 -144 l 2000 -134 q 1855 -179 1929 -165 q 1705 -194 1782 -194 q 1486 -168 1594 -194 q 1273 -98 1377 -141 q 1070 -1 1169 -55 q 879 108 970 52 q 977 200 933 148 q 1050 313 1020 252 q 1096 440 1080 373 q 1112 573 1112 506 q 1070 781 1112 687 q 954 942 1027 875 q 784 1046 882 1009 q 577 1083 687 1083 q 363 1041 462 1083 q 189 927 263 1000 q 72 756 115 855 q 30 543 30 657 q 69 322 30 422 q 179 151 108 223 q 349 39 250 79 q 569 0 448 0 q 672 11 619 0 q 770 43 725 22 q 797 35 779 43 q 839 15 816 27 q 886 -9 862 4 q 932 -33 911 -22 l 932 -31 q 957 -47 947 -40 q 975 -56 968 -54 q 1129 -129 1050 -94 q 1291 -190 1208 -163 q 1459 -234 1375 -218 q 1629 -250 1544 -250 q 1824 -222 1729 -250 q 2005 -144 1919 -195 m 972 565 q 949 405 972 483 q 882 261 926 327 q 776 142 838 194 q 636 61 713 90 q 445 126 533 75 q 294 253 358 177 q 194 423 230 329 q 158 620 158 518 q 188 786 158 712 q 272 914 218 861 q 401 996 326 968 q 568 1025 476 1025 q 740 986 665 1025 q 866 885 815 948 q 945 738 918 822 q 972 565 972 655 "},"M":{"x_min":31.609375,"x_max":1384.828125,"ha":1415,"o":"m 1384 12 q 1356 22 1369 19 q 1330 27 1343 25 q 1285 40 1308 31 q 1243 77 1262 50 q 1225 134 1234 88 q 1205 245 1215 179 q 1186 392 1195 311 q 1167 559 1176 473 q 1150 727 1158 644 q 1136 880 1143 811 q 1129 943 1133 911 q 1124 1001 1126 975 q 1120 1044 1122 1027 q 1119 1061 1119 1061 l 1109 1063 q 1095 1038 1109 1063 q 1061 977 1080 1013 q 1020 900 1041 940 q 986 832 998 861 q 971 798 979 815 q 955 765 963 782 q 896 639 925 702 q 838 513 868 576 q 766 350 802 433 q 691 187 730 268 q 645 290 673 222 q 581 431 616 358 q 517 561 552 491 q 445 702 481 632 q 372 838 408 772 q 310 954 337 904 q 266 1034 283 1004 q 250 1065 250 1065 l 240 1062 q 238 1045 240 1062 q 233 1000 236 1027 q 227 940 230 973 q 219 873 223 907 q 202 714 211 801 q 184 538 194 627 q 165 365 175 450 q 147 213 155 280 q 131 103 138 147 q 120 54 125 59 q 90 26 105 31 q 52 18 75 20 q 43 16 48 16 q 34 15 38 16 q 31 8 30 13 q 37 4 33 2 q 75 7 56 6 q 113 8 94 8 q 218 4 165 8 q 322 0 269 0 q 327 4 326 0 q 325 11 329 8 q 305 18 315 15 q 287 25 295 22 q 244 46 261 34 q 227 95 227 58 q 238 336 227 215 q 265 575 250 458 q 276 667 270 622 q 286 761 281 712 q 344 643 319 698 q 398 522 369 587 q 518 260 455 394 q 669 6 581 126 q 675 4 672 4 q 679 6 677 4 q 731 115 705 61 q 782 223 757 169 q 908 497 845 358 q 1040 766 970 636 q 1052 645 1045 701 q 1066 525 1058 590 l 1066 526 q 1089 310 1079 422 q 1100 93 1100 198 q 1094 61 1100 77 q 1083 29 1088 45 q 1080 20 1082 25 q 1077 12 1079 16 q 1083 5 1075 5 q 1233 2 1158 2 q 1383 1 1308 1 l 1384 12 "},"C":{"x_min":30.5625,"x_max":958.40625,"ha":989,"o":"m 958 201 q 954 250 958 226 q 949 254 952 254 q 943 251 945 255 q 892 157 918 197 q 832 91 866 118 q 754 52 798 65 q 648 38 709 38 q 450 83 541 38 q 293 201 359 127 q 190 370 227 275 q 154 569 154 466 q 185 748 154 668 q 273 886 216 829 q 411 975 330 944 q 590 1007 491 1007 q 704 991 650 1007 q 801 943 758 975 q 872 863 844 911 q 912 754 901 816 q 916 750 913 750 q 922 754 920 750 q 939 881 932 818 q 950 1011 947 944 q 944 1016 950 1016 q 872 1023 909 1019 q 800 1033 836 1027 q 700 1047 751 1040 q 598 1054 650 1054 q 499 1048 552 1054 q 393 1029 445 1043 q 292 994 340 1016 q 209 938 244 972 q 133 845 166 897 q 77 737 100 794 q 42 620 54 680 q 30 501 30 561 q 69 292 30 386 q 178 131 108 198 q 344 27 248 63 q 552 -9 440 -9 q 733 0 644 -9 q 911 23 822 8 q 915 26 915 23 q 946 111 934 65 q 958 201 958 156 "},"!":{"x_min":30.5625,"x_max":152.796875,"ha":183,"o":"m 151 959 l 144 965 q 108 951 127 962 q 71 924 88 940 q 42 888 54 908 q 30 851 30 869 q 31 777 30 826 q 36 668 33 729 q 44 543 40 608 q 54 422 48 479 q 69 321 61 365 q 87 261 77 277 q 94 258 90 256 q 98 263 98 259 q 112 438 106 350 q 125 612 118 526 q 138 786 131 700 q 151 959 144 872 m 152 123 q 134 172 152 151 q 88 193 116 193 q 48 179 65 193 q 31 140 31 166 q 35 114 31 127 q 46 90 38 101 q 64 71 54 79 q 90 63 75 63 q 133 81 113 63 q 152 123 152 98 "},"{":{"x_min":30.5625,"x_max":316.09375,"ha":347,"o":"m 313 22 q 256 68 277 38 q 223 133 234 97 q 209 208 212 169 q 206 283 206 247 l 206 316 q 207 339 206 327 q 208 363 208 351 q 206 416 208 390 q 197 466 204 443 q 176 509 190 490 q 140 541 162 529 q 180 575 166 554 q 200 620 194 595 q 208 673 206 645 q 209 726 209 701 l 209 759 q 210 828 209 793 q 220 894 211 863 q 251 947 230 925 q 312 977 272 969 q 315 984 316 979 q 311 988 315 988 q 204 962 241 986 q 149 902 166 938 q 128 820 131 865 q 123 732 125 776 q 121 666 123 698 q 110 609 119 634 q 84 566 101 583 q 34 543 66 548 q 30 537 30 541 q 34 531 30 534 q 61 522 50 525 q 83 516 73 519 q 101 510 94 513 q 111 498 108 506 q 116 475 115 490 q 118 430 118 459 l 118 327 q 123 225 118 275 q 148 133 129 175 q 206 59 168 91 q 309 11 244 27 l 313 22 "},"X":{"x_min":30.5625,"x_max":984.796875,"ha":1015,"o":"m 984 13 q 895 63 937 26 q 814 153 852 101 q 741 265 776 205 q 675 383 707 325 q 621 478 647 431 q 566 563 595 525 q 604 620 584 587 q 648 693 625 654 q 713 800 679 744 q 786 902 748 855 q 861 979 823 948 q 940 1013 900 1011 q 944 1019 944 1013 q 940 1025 944 1025 q 875 1020 908 1022 q 811 1019 843 1019 q 659 1027 736 1019 q 654 1023 655 1027 q 658 1016 654 1019 q 679 1007 668 1013 q 702 993 691 1001 q 719 976 712 986 q 726 955 726 966 q 716 918 726 940 q 688 870 705 897 q 651 815 672 844 q 609 757 630 786 q 558 686 581 719 q 522 630 534 652 q 486 693 509 657 q 440 768 463 730 q 403 824 422 795 q 370 878 384 852 q 346 927 355 904 q 337 965 337 950 q 354 1003 337 988 q 393 1023 372 1018 q 396 1029 397 1025 q 391 1033 395 1033 q 350 1032 370 1033 q 311 1027 330 1030 q 256 1023 283 1025 q 202 1020 229 1020 q 131 1023 166 1020 q 62 1029 97 1026 q 57 1024 58 1029 q 61 1018 56 1019 q 160 970 115 1008 q 244 880 205 933 q 316 766 283 827 q 377 647 350 704 q 411 582 395 612 q 443 527 427 552 q 400 463 423 501 q 352 380 377 425 q 281 258 319 322 q 203 141 244 194 q 118 52 162 88 q 30 13 75 16 l 30 2 q 97 8 65 5 q 165 11 130 11 q 240 9 202 11 q 318 4 279 6 l 318 15 q 288 22 302 15 q 263 40 273 29 q 281 102 266 65 q 320 180 297 138 q 369 266 343 222 q 420 351 395 311 q 459 413 441 386 q 486 458 476 440 q 494 444 490 451 q 506 423 498 437 q 545 359 523 395 q 591 284 568 323 q 637 204 615 244 q 677 132 659 165 q 707 77 695 100 q 718 47 718 54 q 706 29 718 40 q 686 11 694 18 q 686 11 684 9 q 686 12 687 13 q 684 6 683 9 q 688 2 686 2 q 709 4 700 4 q 732 5 720 4 q 779 9 755 8 q 825 11 802 11 q 877 9 851 11 q 932 5 904 8 q 957 4 944 4 q 983 2 969 4 l 984 13 "},"#":{"x_min":30.5625,"x_max":657,"ha":688,"o":"m 657 763 q 651 770 657 770 l 555 770 q 600 1029 586 897 q 595 1033 600 1033 l 530 1044 q 525 1040 525 1044 q 498 904 511 972 q 472 769 486 837 q 372 766 420 768 q 273 762 325 763 q 295 895 284 832 q 315 1030 305 959 q 311 1036 315 1036 l 248 1044 q 241 1040 241 1044 q 215 899 227 969 q 188 758 202 829 l 98 755 q 93 751 93 755 l 81 691 q 87 684 81 684 q 132 682 111 683 q 176 680 154 682 q 159 570 166 623 q 143 458 152 516 l 45 454 q 40 450 40 454 l 30 388 q 36 381 30 381 q 84 378 59 380 q 131 375 108 376 q 126 341 129 355 q 120 308 123 327 q 105 198 112 254 q 91 87 98 143 q 95 81 91 81 l 131 72 q 138 76 136 70 q 149 118 144 95 q 159 162 154 141 q 183 266 170 211 q 202 375 195 322 q 306 370 256 372 q 409 366 356 369 l 370 91 q 376 84 370 84 l 411 79 q 416 81 413 79 q 443 173 433 123 q 462 273 454 223 q 470 320 466 297 q 479 365 473 343 l 584 362 q 590 366 590 362 l 607 463 q 601 470 607 470 q 550 470 576 470 q 501 469 525 469 q 520 568 512 520 q 538 668 527 616 l 637 665 q 643 668 643 665 l 657 763 m 455 668 q 438 568 447 615 q 422 469 430 522 q 354 463 390 463 q 281 462 318 462 q 250 462 265 462 q 220 461 236 462 q 241 569 231 518 q 262 676 251 620 l 455 668 "},")":{"x_min":30.84375,"x_max":295.859375,"ha":326,"o":"m 295 515 q 276 654 295 587 q 222 783 256 722 q 143 899 188 844 q 45 1000 97 954 q 38 1000 43 1002 q 37 993 34 997 q 160 761 112 884 q 208 504 208 637 q 159 250 208 372 q 31 23 111 127 q 33 17 29 20 q 40 16 37 13 q 140 120 94 63 q 221 239 187 176 q 275 372 255 302 q 295 515 295 441 "},"\u001c":{"x_min":0,"x_max":0,"ha":501},"Å":{"x_min":30.5625,"x_max":256.96875,"ha":288,"o":"m 256 1111 q 226 1168 256 1150 q 162 1186 195 1186 q 115 1179 138 1186 q 72 1158 91 1172 q 42 1123 54 1144 q 30 1076 30 1102 q 38 1048 30 1059 q 59 1028 47 1036 q 87 1017 72 1020 q 115 1013 102 1013 q 148 1022 131 1013 q 186 1029 166 1023 q 221 1047 205 1036 q 247 1074 237 1058 q 256 1111 256 1090 m 194 1098 q 179 1063 194 1083 q 148 1043 163 1043 q 104 1059 125 1043 q 83 1100 83 1075 q 100 1134 83 1120 q 136 1147 116 1147 q 175 1134 156 1147 q 194 1098 194 1122 "},"ø":{"x_min":30.5625,"x_max":922.296875,"ha":953,"o":"m 922 434 q 884 606 922 525 q 779 748 845 687 l 840 808 l 818 830 l 755 768 q 632 836 700 812 q 494 861 565 861 q 325 834 408 861 q 176 758 241 808 q 70 634 111 708 q 30 468 30 561 q 67 309 30 384 q 166 179 104 234 l 108 122 l 130 100 l 190 159 q 319 88 248 113 q 465 63 390 63 q 628 87 547 63 q 775 158 709 111 q 881 274 840 205 q 922 434 922 343 m 712 725 l 215 227 q 147 350 170 283 q 125 487 125 416 q 150 625 125 563 q 222 731 176 687 q 331 798 268 775 q 469 822 394 822 q 600 797 537 822 q 712 725 663 773 m 829 437 q 804 300 829 362 q 736 192 780 237 q 629 122 691 147 q 491 98 566 98 q 352 125 419 98 q 236 205 286 152 l 734 702 q 805 579 782 648 q 829 437 829 509 "},"}":{"x_min":31.609375,"x_max":315.296875,"ha":346,"o":"m 315 534 q 297 544 308 541 q 275 548 286 547 q 245 558 258 551 q 231 593 231 565 q 232 622 231 608 q 233 652 233 637 l 233 718 q 227 815 233 768 q 202 900 222 862 q 143 963 181 938 q 41 995 105 988 q 36 991 37 995 q 38 984 34 987 q 43 982 41 983 q 47 979 44 980 l 47 980 q 80 957 63 969 q 111 931 97 945 q 134 899 125 916 q 143 861 143 882 q 143 833 143 848 q 141 804 143 819 q 139 769 140 787 q 138 732 138 751 q 152 622 138 675 q 211 541 166 569 q 186 515 198 533 q 163 477 173 497 q 148 438 154 458 q 143 408 143 419 q 143 379 143 395 q 144 350 143 363 q 145 315 145 331 q 145 279 145 298 q 141 201 145 240 q 125 128 137 162 q 92 68 113 94 q 34 27 70 41 q 31 20 30 25 q 37 16 33 15 q 138 61 100 30 q 199 132 177 91 q 227 224 220 173 q 234 331 234 275 q 234 347 234 338 q 233 368 233 356 l 233 420 q 234 464 233 443 q 240 498 234 486 q 259 520 247 516 q 287 523 272 523 q 300 523 294 523 q 312 525 305 523 l 315 534 "},"Ä":{"x_min":31.15625,"x_max":1063.96875,"ha":1095,"o":"m 712 1077 q 697 1119 712 1101 q 657 1137 682 1137 q 622 1120 636 1137 q 608 1084 608 1104 q 623 1043 608 1062 q 662 1023 638 1023 q 698 1039 684 1023 q 712 1077 712 1055 m 427 1077 q 413 1117 427 1097 q 377 1137 400 1137 q 340 1122 356 1137 q 323 1084 323 1107 q 339 1043 323 1062 q 377 1023 355 1023 q 413 1039 400 1023 q 427 1077 427 1055 m 1063 12 q 982 45 1025 23 q 920 101 940 68 q 830 284 877 179 q 737 503 783 388 q 648 733 691 618 q 569 947 605 848 q 550 999 559 975 q 531 1047 540 1023 q 526 1051 530 1051 q 520 1047 522 1051 q 449 854 484 951 q 380 661 413 758 q 284 389 333 526 q 181 122 236 252 q 124 47 162 75 q 34 11 86 19 q 31 4 30 9 q 36 0 31 0 q 65 2 51 1 q 95 4 80 2 q 144 8 119 6 q 194 9 169 9 q 241 8 218 9 q 288 4 265 6 q 312 2 300 2 q 336 1 325 2 l 336 12 q 311 16 325 13 q 287 24 298 19 q 268 38 276 29 q 261 61 261 47 q 274 129 261 81 q 304 228 287 176 q 340 329 322 280 q 368 401 358 377 l 662 401 q 730 224 695 312 q 798 47 765 136 l 723 12 q 720 4 719 9 q 726 1 722 0 q 743 2 733 2 q 759 4 752 2 q 829 9 794 6 q 898 11 863 11 q 981 8 940 11 q 1062 1 1022 5 l 1063 12 m 638 461 l 386 461 q 439 622 415 543 q 491 784 463 701 q 503 821 497 802 q 516 859 509 840 l 638 461 "},"¸":{"x_min":30.5625,"x_max":213.90625,"ha":244,"o":"m 213 -50 q 189 0 213 -15 q 133 15 165 15 q 118 14 126 15 q 102 12 109 13 l 180 90 l 168 91 q 132 80 148 91 q 101 54 116 69 q 71 25 86 40 q 41 1 56 9 q 109 -22 79 0 q 138 -86 138 -45 q 109 -150 138 -127 q 40 -173 79 -173 l 30 -172 q 77 -181 51 -181 q 127 -170 102 -181 q 170 -141 151 -159 q 202 -99 190 -123 q 213 -50 213 -75 "},"a":{"x_min":31.15625,"x_max":793.125,"ha":824,"o":"m 793 106 l 793 118 q 734 134 759 120 q 691 180 708 148 q 550 487 612 330 q 431 800 488 644 q 417 838 425 819 q 402 876 409 857 q 397 880 401 880 q 391 876 393 880 q 341 738 365 807 q 293 600 318 669 q 219 395 256 497 q 141 193 181 294 l 141 194 q 34 113 111 123 q 31 106 30 112 q 36 102 31 101 q 91 107 63 105 q 147 109 119 109 q 202 107 175 109 q 256 102 230 105 l 256 113 q 222 122 240 116 q 204 150 204 129 q 213 199 204 165 q 236 271 223 233 q 261 345 248 309 q 281 398 275 380 l 497 398 q 546 268 520 331 q 595 140 572 205 l 541 113 q 538 106 537 111 q 544 102 540 102 q 608 108 576 105 q 672 111 640 111 q 696 110 684 111 q 719 108 708 109 q 756 105 738 106 q 793 106 773 104 m 476 444 l 297 444 q 345 589 323 519 q 390 733 366 659 l 476 444 "},"=":{"x_min":30.5625,"x_max":391.703125,"ha":422,"o":"m 391 526 l 391 537 q 359 541 383 540 q 304 543 336 543 q 237 544 273 544 q 168 544 201 544 l 54 544 q 48 540 48 544 q 37 498 41 520 q 30 452 33 476 q 37 447 30 444 q 134 475 84 465 q 233 493 184 484 q 313 507 273 500 q 391 526 352 515 m 391 429 l 391 440 q 359 444 383 443 q 304 446 336 445 q 237 447 273 447 q 168 447 201 447 l 54 447 q 48 443 48 447 q 37 402 41 423 q 30 356 33 380 q 37 351 30 348 q 134 379 84 369 q 233 397 184 388 q 313 411 273 404 q 391 429 352 418 "},"N":{"x_min":31.75,"x_max":1130.640625,"ha":1161,"o":"m 1130 1016 l 1129 1027 q 1112 1028 1123 1027 q 1094 1029 1101 1029 q 1065 1029 1080 1032 q 1036 1026 1050 1027 l 987 1022 q 907 1024 947 1019 q 826 1033 866 1029 q 820 1031 822 1034 q 820 1025 818 1027 q 843 1014 830 1016 q 868 1009 855 1012 q 895 1004 882 1007 q 921 991 909 1001 q 940 960 933 980 q 947 905 947 940 q 951 559 947 732 q 955 213 955 386 l 955 202 q 565 632 759 423 q 165 1052 370 841 q 156 1052 162 1055 q 146 1011 150 1047 q 140 920 143 976 q 138 794 138 865 q 137 647 137 723 q 138 426 137 534 q 140 241 138 318 q 141 179 141 205 q 141 140 141 152 q 136 99 141 115 q 123 72 131 83 q 104 56 115 62 q 80 43 93 50 q 58 29 69 36 q 33 11 47 22 q 32 4 30 8 q 37 1 34 0 q 109 11 73 6 q 180 15 145 15 q 232 13 206 15 q 283 8 258 11 q 322 4 302 5 q 361 1 341 2 q 366 4 365 1 q 363 11 366 8 q 329 29 345 25 q 297 37 312 34 q 271 44 283 40 q 250 59 259 48 q 236 89 241 69 q 231 145 231 109 q 229 288 231 218 q 223 431 226 359 q 218 577 220 505 q 215 719 215 648 q 217 770 215 745 q 222 822 219 795 q 271 766 250 791 q 320 708 293 740 q 654 336 484 520 q 1012 -11 823 151 q 1018 -11 1015 -13 q 1022 -6 1022 -9 q 1036 246 1033 120 q 1040 498 1040 372 q 1040 612 1040 556 q 1038 726 1040 669 q 1037 840 1037 783 q 1037 954 1037 897 q 1045 978 1037 968 q 1065 995 1052 988 q 1092 1005 1077 1001 q 1119 1013 1107 1009 q 1125 1015 1122 1015 q 1130 1016 1127 1015 "},"2":{"x_min":29.921875,"x_max":563.9375,"ha":596,"o":"m 563 284 l 552 286 q 518 222 537 245 q 472 184 498 198 q 415 166 447 170 q 344 162 383 162 l 172 162 q 156 163 163 162 q 283 268 218 205 q 402 405 348 331 q 491 559 456 479 q 526 715 526 638 q 500 820 526 779 q 431 884 473 861 q 336 915 388 907 q 233 923 284 923 q 152 912 191 923 q 79 886 113 901 q 76 880 76 886 q 74 859 75 869 q 73 838 73 850 q 77 776 73 807 q 90 715 80 745 q 96 711 91 711 q 101 716 101 712 q 111 777 101 748 q 138 827 120 805 q 181 862 155 850 q 241 875 208 875 q 314 859 280 875 q 372 816 348 843 q 411 754 397 788 q 425 680 425 719 q 399 566 425 625 q 332 451 373 508 q 242 338 291 394 q 145 230 193 281 q 84 162 113 195 q 31 100 55 129 q 36 91 26 91 l 495 91 q 527 116 513 91 q 548 174 540 141 q 560 238 556 206 q 563 284 563 270 "},"ü":{"x_min":31.15625,"x_max":784.78125,"ha":815,"o":"m 591 940 q 578 980 591 961 q 541 1000 565 1000 q 502 984 519 1000 q 486 945 486 969 q 502 906 486 925 q 541 887 518 887 q 577 902 563 887 q 591 940 591 918 m 362 940 q 349 979 362 959 q 313 1000 336 1000 q 275 984 291 1000 q 258 947 258 969 q 274 905 258 925 q 313 886 290 886 q 349 902 336 886 q 362 940 362 918 m 784 847 l 783 858 q 733 859 758 859 q 684 858 708 858 q 661 857 673 858 q 638 857 650 857 q 562 861 601 857 q 557 856 558 861 q 561 850 556 851 q 620 824 600 843 q 641 765 641 805 l 644 345 q 628 258 644 297 q 583 191 612 219 q 513 148 554 163 q 426 133 473 133 q 341 148 380 133 q 272 190 301 163 q 227 256 243 218 q 211 341 211 294 l 213 766 q 236 813 213 791 q 281 845 259 834 q 284 852 286 848 q 279 857 283 857 q 236 855 256 855 q 193 855 215 855 q 36 859 115 855 q 31 854 31 859 q 34 848 30 850 q 93 822 72 838 q 115 765 115 805 l 115 625 q 114 561 115 595 q 113 490 113 526 q 114 429 113 459 q 115 372 115 398 q 118 327 116 347 q 125 297 120 306 q 171 212 140 251 q 243 144 202 173 q 329 99 283 115 q 425 83 376 83 q 545 107 491 83 q 636 174 598 131 q 694 273 673 216 q 715 394 715 330 l 715 766 q 734 818 715 795 q 784 847 754 841 "},"¯":{"x_min":30.5625,"x_max":326.421875,"ha":357,"o":"m 326 1115 l 40 1115 q 30 1075 30 1093 l 311 1075 q 321 1094 316 1084 q 326 1115 326 1104 "},"Z":{"x_min":29.921875,"x_max":819.515625,"ha":850,"o":"m 819 222 l 809 226 q 773 175 794 202 q 726 124 752 147 q 670 86 700 101 q 611 70 641 70 l 251 69 q 221 70 237 69 q 190 72 205 70 q 517 542 355 306 q 809 1020 679 777 q 809 1026 812 1023 q 804 1029 807 1029 l 234 1029 q 168 1034 201 1029 q 102 1045 134 1038 q 95 1041 95 1045 q 88 993 91 1018 q 81 941 84 968 q 73 879 77 911 q 62 816 69 848 q 65 810 61 812 q 72 811 69 808 q 147 895 118 863 q 207 943 176 926 q 279 964 238 959 q 390 969 320 969 q 451 969 422 969 q 512 970 481 969 q 573 972 544 972 q 633 972 604 972 q 651 969 643 972 q 547 811 600 888 q 443 655 495 734 q 231 336 336 495 q 31 9 127 176 q 36 1 26 1 l 125 1 q 203 2 165 1 q 279 4 241 2 q 343 6 311 5 q 408 6 376 6 q 480 6 444 6 q 552 4 516 5 q 622 2 588 2 q 693 1 657 1 q 736 1 715 1 q 779 2 757 1 q 784 8 784 2 q 786 25 786 18 q 788 43 787 33 q 802 132 795 87 q 819 222 808 177 "},"u":{"x_min":31.15625,"x_max":784.78125,"ha":815,"o":"m 784 847 l 783 858 q 733 859 758 859 q 684 858 708 858 q 661 857 673 858 q 638 857 650 857 q 562 861 601 857 q 557 856 558 861 q 561 850 556 851 q 620 824 600 843 q 641 765 641 805 l 644 345 q 628 258 644 297 q 583 191 612 219 q 513 148 554 163 q 426 133 473 133 q 341 148 380 133 q 272 190 301 163 q 227 256 243 218 q 211 341 211 294 l 213 766 q 236 813 213 791 q 281 845 259 834 q 284 852 286 848 q 279 857 283 857 q 236 855 256 855 q 193 855 215 855 q 36 859 115 855 q 31 854 31 859 q 34 848 30 850 q 93 822 72 838 q 115 765 115 805 l 115 625 q 114 561 115 595 q 113 490 113 526 q 114 429 113 459 q 115 372 115 398 q 118 327 116 347 q 125 297 120 306 q 171 212 140 251 q 243 144 202 173 q 329 99 283 115 q 425 83 376 83 q 545 107 491 83 q 636 174 598 131 q 694 273 673 216 q 715 394 715 330 l 715 766 q 734 818 715 795 q 784 847 754 841 "},"k":{"x_min":31.15625,"x_max":777.84375,"ha":808,"o":"m 777 108 l 775 118 q 682 147 732 118 q 579 222 632 176 q 477 322 527 268 q 381 425 426 376 q 332 479 355 454 q 290 525 309 505 q 334 568 309 543 q 381 622 358 594 q 450 693 412 655 q 526 765 487 732 q 602 821 565 798 q 673 848 640 844 q 677 854 677 850 q 672 859 676 859 q 626 861 648 861 q 581 862 604 862 q 527 862 554 862 q 473 865 501 862 q 469 857 463 865 q 476 829 476 843 q 460 782 476 808 q 419 727 444 757 q 363 668 394 698 q 301 609 331 637 q 252 563 276 586 q 213 522 229 541 q 211 649 212 590 q 209 777 211 708 q 229 825 209 805 q 276 847 248 845 q 280 852 280 847 q 276 858 280 858 q 269 859 273 858 q 262 859 265 859 q 214 860 238 861 q 166 858 190 859 q 129 856 147 857 q 95 855 112 855 q 65 856 80 855 q 36 858 51 857 q 31 853 31 858 q 34 847 30 848 q 87 824 62 841 q 112 779 112 807 l 112 211 q 111 170 112 187 q 103 142 109 154 q 83 122 97 130 q 44 111 69 115 q 40 104 40 109 q 45 100 41 100 q 106 104 77 102 q 166 106 136 106 q 262 102 213 106 q 277 101 270 101 q 294 100 286 101 q 300 103 298 98 q 297 111 301 108 q 273 122 286 118 q 251 129 261 126 q 234 137 241 133 q 220 150 226 141 q 212 175 215 159 q 209 213 209 190 q 210 346 209 281 q 212 479 211 411 q 260 429 236 456 q 316 365 284 401 q 404 267 358 318 q 497 175 450 216 q 595 106 545 133 q 690 80 644 80 q 736 88 713 80 q 777 108 758 95 "},"€":{"x_min":30.5625,"x_max":1119.53125,"ha":1150,"o":"m 1119 198 q 1113 245 1119 225 q 1061 149 1088 190 q 1000 81 1034 108 q 920 40 966 54 q 811 27 875 27 q 654 56 730 27 q 515 133 579 84 q 404 248 451 181 q 331 390 356 315 l 1101 390 l 1101 440 l 318 440 q 309 498 311 469 q 305 556 306 527 l 1101 556 l 1101 607 l 306 607 q 346 777 311 701 q 441 907 381 854 q 579 989 500 961 q 752 1018 659 1018 q 870 1001 815 1018 q 970 952 926 984 q 1043 870 1013 919 q 1083 758 1072 822 q 1100 887 1093 823 q 1109 1016 1108 951 q 936 1039 1022 1023 q 761 1055 850 1055 q 385 948 529 1055 q 200 607 241 841 l 30 607 l 30 556 l 194 556 q 194 440 187 498 l 30 440 l 30 390 l 201 390 q 267 221 220 295 q 381 95 313 147 q 533 17 448 44 q 712 -9 618 -9 q 893 0 804 -9 q 1073 23 983 8 q 1107 109 1094 63 q 1119 198 1119 154 "},"¢":{"x_min":30.5625,"x_max":538.9375,"ha":569,"o":"m 538 684 q 521 734 538 715 q 479 764 504 752 q 425 781 454 776 q 375 787 397 786 l 390 897 q 384 904 390 904 l 370 904 q 336 876 343 904 q 329 818 330 848 q 329 798 329 807 q 326 783 329 790 q 208 766 262 786 q 114 707 154 745 q 52 616 75 669 q 30 500 30 563 q 46 401 30 447 q 91 319 62 355 q 162 257 120 283 q 255 220 204 231 q 251 177 254 198 q 245 134 248 156 q 240 95 243 115 q 237 56 238 76 q 243 51 237 51 l 287 56 q 293 61 293 56 q 300 137 295 100 q 308 212 305 175 q 324 211 316 212 q 343 211 331 211 q 406 215 372 211 q 469 230 440 219 q 517 261 498 241 q 536 315 536 281 q 532 342 536 329 q 525 366 529 355 q 519 370 523 370 q 513 366 515 370 q 461 293 497 315 q 372 272 426 270 q 347 272 359 272 q 322 273 334 273 q 328 327 326 293 q 333 405 330 362 q 340 513 336 456 q 352 618 344 570 q 370 697 359 666 q 398 729 381 729 q 427 718 412 729 q 457 691 443 707 q 484 658 472 676 q 505 627 497 640 l 504 627 q 506 623 505 625 q 509 619 508 622 q 520 619 515 611 q 533 650 527 634 q 538 684 538 666 m 311 729 q 289 511 300 620 q 268 293 279 401 q 162 392 204 327 q 120 530 120 456 q 174 669 120 616 q 311 729 227 722 "},"ß":{"x_min":30.5625,"x_max":813.953125,"ha":845,"o":"m 813 304 q 800 373 813 341 q 763 434 786 405 q 711 488 740 462 q 654 537 683 513 q 603 581 627 559 q 559 625 579 602 q 528 670 540 647 q 516 722 516 694 q 552 809 516 775 q 640 843 588 843 q 723 808 693 843 q 765 725 754 773 q 770 720 766 720 q 776 725 775 720 q 793 865 787 797 q 788 870 793 868 q 688 884 743 884 q 604 874 650 884 q 518 842 558 863 q 452 786 479 820 q 426 705 426 752 q 440 643 426 673 q 477 582 454 612 q 528 524 500 552 q 587 468 556 495 q 641 415 615 441 q 688 362 668 388 q 720 310 708 336 q 733 258 733 284 q 719 207 733 230 q 684 168 705 184 q 637 144 663 152 q 586 136 611 136 q 533 143 558 136 q 488 167 508 151 q 456 205 468 183 q 444 256 444 227 l 444 277 q 438 281 444 281 q 433 277 433 281 l 425 244 q 418 212 420 229 q 415 179 415 195 q 427 135 415 152 q 457 106 438 118 q 499 90 476 95 q 543 86 522 86 q 634 102 586 86 q 722 146 682 118 q 788 215 762 175 q 813 304 813 255 m 429 304 q 415 373 429 341 q 379 434 401 405 q 327 487 356 462 q 269 537 298 512 q 218 579 243 558 q 175 624 194 601 q 143 670 155 647 q 131 722 131 694 q 168 809 131 775 q 255 843 204 843 q 338 808 308 843 q 380 725 369 773 q 386 720 381 720 q 391 725 390 720 q 408 865 402 797 q 404 870 408 868 q 304 884 358 884 q 219 874 265 884 q 134 842 173 863 q 68 786 94 820 q 41 705 41 752 q 55 643 41 673 q 92 582 69 612 q 143 524 115 552 q 202 468 172 495 q 256 415 230 441 q 304 362 283 388 q 337 310 325 336 q 350 258 350 284 q 336 207 350 230 q 300 168 322 184 q 252 144 279 152 q 201 136 226 136 q 148 143 173 136 q 103 167 123 151 q 71 205 83 183 q 59 256 59 227 l 59 277 q 54 281 59 281 q 48 277 48 281 l 40 244 q 33 212 36 229 q 30 179 30 195 q 43 135 30 152 q 74 106 55 118 q 115 90 93 95 q 158 86 137 86 q 249 102 201 86 q 337 146 297 118 q 403 215 377 175 q 429 304 429 255 "},"s":{"x_min":30.5625,"x_max":427.8125,"ha":458,"o":"m 427 304 q 413 373 427 341 q 377 434 400 405 q 327 488 355 462 q 269 537 298 513 q 218 581 243 559 q 174 625 193 602 q 143 670 155 647 q 131 722 131 694 q 167 809 131 775 q 255 843 202 843 q 338 808 306 843 q 380 725 369 773 q 386 720 381 720 q 391 725 390 720 q 408 865 402 797 q 404 870 408 868 q 302 884 358 884 q 218 874 263 884 q 133 842 172 863 q 68 786 94 820 q 41 705 41 752 q 55 643 41 673 q 91 582 69 612 q 143 524 113 552 q 201 468 172 495 q 255 415 229 441 q 302 362 281 388 q 336 310 323 336 q 348 258 348 284 q 334 207 348 230 q 299 168 320 184 q 251 144 277 152 q 200 136 225 136 q 147 143 173 136 q 102 167 122 151 q 70 205 83 183 q 58 256 58 227 l 58 277 q 52 281 58 281 q 47 277 47 281 l 40 244 q 34 212 37 229 q 30 179 30 195 q 42 135 30 152 q 72 106 54 118 q 114 90 91 95 q 158 86 137 86 q 249 102 201 86 q 336 146 297 118 q 402 215 376 175 q 427 304 427 255 "},"B":{"x_min":30.359375,"x_max":737.5625,"ha":768,"o":"m 737 301 q 720 398 737 352 q 671 480 702 444 q 598 543 640 516 q 508 584 556 569 q 554 634 531 607 q 596 691 577 661 q 626 752 615 720 q 637 819 637 784 q 610 916 637 875 q 541 985 583 958 q 448 1025 500 1012 q 350 1038 397 1038 q 293 1037 322 1038 q 234 1033 263 1036 q 177 1027 206 1030 q 118 1025 148 1025 q 37 1033 79 1025 q 31 1032 33 1034 q 31 1026 29 1029 q 56 1008 43 1011 q 84 1004 69 1005 q 106 1000 95 1002 q 125 991 116 998 q 138 970 133 984 q 143 933 143 957 l 143 148 q 140 93 143 115 q 128 57 137 72 q 100 32 119 43 q 50 12 81 22 q 46 6 45 11 q 51 1 47 1 q 140 0 95 1 q 230 -1 186 0 q 320 -2 276 -2 q 409 -2 365 -2 q 534 18 475 -2 q 638 79 593 40 q 710 175 683 119 q 737 301 737 231 m 522 798 q 504 699 522 737 q 455 639 487 661 q 378 610 423 618 q 279 602 333 602 l 270 602 l 270 982 q 309 991 290 987 q 348 995 329 995 q 421 979 388 995 q 476 936 454 963 q 510 873 498 909 q 522 798 522 837 m 616 258 q 602 177 616 216 q 562 108 588 138 q 500 59 536 77 q 420 41 463 41 q 372 49 398 41 q 322 71 345 56 q 284 106 300 86 q 269 152 269 126 l 269 547 l 279 547 q 363 544 319 547 q 445 522 408 541 q 514 475 483 504 q 568 412 545 447 q 604 338 591 377 q 616 258 616 298 "},"?":{"x_min":30.5625,"x_max":462.53125,"ha":493,"o":"m 462 786 q 442 863 462 827 q 390 926 422 900 q 318 967 358 952 q 238 982 277 982 q 172 975 208 982 q 104 951 136 968 q 52 908 73 934 q 30 844 30 882 q 40 797 30 819 q 63 754 50 775 q 68 751 65 751 q 72 755 70 751 q 86 807 77 782 q 109 854 95 833 q 145 887 123 875 q 197 900 166 900 q 254 895 226 900 q 306 879 283 891 q 343 845 329 866 q 356 790 356 823 q 339 706 356 751 q 297 616 322 661 q 243 529 272 570 q 193 454 215 487 q 162 410 175 429 q 150 384 150 391 q 159 351 150 369 q 184 318 169 333 q 217 291 200 302 q 250 280 234 280 q 254 284 254 280 q 252 290 255 287 q 225 340 225 308 q 255 425 225 377 q 326 522 286 473 q 374 585 350 552 q 418 651 398 618 q 450 718 437 684 q 462 786 462 752 m 293 123 q 274 172 293 151 q 227 193 255 193 q 188 179 204 193 q 172 140 172 166 q 175 114 172 127 q 186 90 179 101 q 203 71 193 79 q 229 63 213 63 q 272 81 252 63 q 293 123 293 98 "},"H":{"x_min":30.5625,"x_max":1095.921875,"ha":1126,"o":"m 1095 12 q 1001 55 1030 23 q 972 154 972 87 l 972 925 q 997 988 972 973 q 1065 1011 1023 1002 q 1068 1017 1069 1012 q 1063 1022 1068 1022 q 916 1018 988 1018 q 826 1020 872 1018 q 736 1025 780 1022 q 731 1020 732 1025 q 734 1013 730 1015 l 762 1005 q 794 995 779 1000 q 821 983 809 991 q 839 961 833 975 q 845 923 845 947 l 845 601 l 263 601 l 263 930 q 291 991 263 969 q 356 1013 319 1012 q 361 1019 361 1013 q 356 1025 361 1025 q 341 1024 350 1025 q 326 1023 333 1023 q 262 1021 294 1022 q 198 1020 230 1020 q 115 1023 156 1020 q 30 1027 73 1025 l 30 1016 q 103 993 69 1015 q 137 929 137 972 l 137 129 q 134 77 137 97 q 122 46 131 58 q 93 27 112 34 q 43 13 75 19 q 39 7 38 12 q 44 2 40 2 q 61 2 51 2 q 79 1 72 1 q 127 0 104 0 q 175 0 151 0 q 222 0 195 0 q 270 1 250 1 q 329 2 300 2 q 386 2 358 2 q 390 8 390 2 q 386 13 390 13 q 293 51 325 19 q 262 147 262 83 l 262 544 l 845 544 l 845 150 q 843 113 845 134 q 832 70 840 91 q 812 35 825 50 q 782 20 800 20 q 768 19 775 20 q 754 15 761 18 q 750 9 750 13 q 755 4 751 4 q 829 6 791 5 q 902 6 866 6 q 998 5 951 6 q 1094 1 1045 4 l 1095 12 "},"c":{"x_min":30.5625,"x_max":716.71875,"ha":747,"o":"m 716 251 q 716 269 716 261 q 713 286 715 277 q 709 291 712 290 q 702 288 705 293 q 666 219 684 248 q 622 171 647 190 q 564 143 597 152 q 487 133 531 133 q 341 165 408 133 q 226 252 275 198 q 150 377 177 306 q 123 523 123 447 q 146 654 123 595 q 211 755 169 713 q 313 820 254 797 q 444 843 372 843 q 527 831 487 843 q 597 796 566 819 q 650 738 629 773 q 679 658 672 704 q 684 654 680 654 q 690 658 688 654 q 702 752 697 704 q 711 848 708 800 q 705 854 711 854 q 652 860 679 857 q 598 868 626 863 q 525 877 562 873 q 450 882 488 882 q 277 854 354 882 q 145 775 200 827 q 60 647 90 723 q 30 472 30 570 q 59 319 30 388 q 140 200 88 250 q 262 122 191 150 q 416 94 333 94 q 548 101 483 94 q 680 119 613 108 q 684 122 684 119 q 708 184 700 151 q 716 251 716 218 "},"¶":{"x_min":30.5625,"x_max":676.4375,"ha":707,"o":"m 676 1007 l 676 1043 q 670 1048 676 1048 l 401 1048 q 257 1031 325 1048 q 139 976 190 1013 q 59 878 88 938 q 30 732 30 818 q 54 610 30 666 q 118 512 77 554 q 215 445 159 470 q 334 418 270 419 l 334 -200 l 244 -200 q 238 -205 238 -200 l 238 -244 q 244 -250 238 -250 l 395 -250 l 395 1002 l 522 1002 q 522 694 522 852 q 521 376 522 536 q 520 58 520 216 q 520 -250 520 -100 l 669 -250 q 675 -244 675 -250 l 675 -205 q 669 -200 675 -200 q 625 -200 647 -200 q 580 -201 604 -201 l 580 1001 l 670 1001 q 676 1007 676 1001 "},"¥":{"x_min":30.5625,"x_max":776.453125,"ha":807,"o":"m 776 907 l 697 907 q 634 906 665 907 q 570 902 602 905 q 590 845 590 876 q 568 775 590 819 q 517 681 545 730 q 460 585 488 632 q 419 508 431 538 q 375 590 404 543 q 315 687 345 637 q 262 784 284 737 q 240 863 240 830 q 252 902 240 886 q 143 907 198 907 q 86 905 115 907 q 30 901 58 904 q 97 864 65 891 q 160 798 130 837 q 217 713 190 759 q 269 622 244 668 q 316 535 294 576 q 355 465 337 494 q 338 463 347 463 q 322 462 330 462 q 282 464 304 462 q 240 465 261 466 q 202 455 219 463 q 175 426 184 447 l 365 426 l 365 151 q 354 124 365 134 q 329 107 344 113 q 298 99 315 101 q 269 98 281 97 l 252 100 q 306 90 279 91 q 361 88 333 88 q 458 89 409 88 q 555 88 506 90 q 524 97 543 94 q 486 106 505 101 q 454 120 468 111 q 441 150 441 130 l 441 426 l 626 426 l 637 466 l 447 466 q 484 536 462 494 q 531 625 505 577 q 585 721 556 673 q 645 809 613 769 q 709 875 676 848 q 776 907 743 902 "},"(":{"x_min":30.5625,"x_max":288.625,"ha":319,"o":"m 287 23 q 163 250 211 127 q 116 505 116 373 q 163 759 116 636 q 287 987 211 883 q 286 994 290 991 q 279 994 281 997 q 181 889 226 945 q 102 770 136 833 q 50 637 69 707 q 30 495 30 568 q 50 358 30 425 q 102 231 69 291 q 181 116 136 170 q 279 16 226 62 l 287 23 "},"U":{"x_min":31.15625,"x_max":1051.46875,"ha":1082,"o":"m 1051 1018 l 1050 1029 l 1033 1029 q 972 1029 1001 1029 q 912 1030 943 1030 l 847 1030 q 798 1030 823 1030 q 750 1033 775 1030 q 745 1028 745 1033 q 748 1022 744 1023 q 831 987 802 1013 q 859 904 859 961 q 859 761 859 832 q 861 619 859 690 q 862 476 862 548 q 862 334 862 405 q 839 216 862 269 q 777 125 816 163 q 683 66 737 87 q 565 45 629 45 q 448 65 502 45 q 354 123 394 86 q 293 213 315 161 q 270 329 270 265 q 270 473 270 401 q 272 618 270 545 q 273 761 273 690 q 273 905 273 832 q 282 939 273 923 q 306 970 291 955 q 336 995 320 984 q 368 1015 352 1007 q 370 1022 372 1018 q 365 1026 369 1026 q 309 1025 337 1025 q 255 1025 283 1025 q 146 1026 201 1025 q 36 1030 91 1027 q 31 1025 31 1030 q 34 1019 30 1020 q 115 984 86 1007 q 145 904 145 961 q 145 866 145 888 q 144 815 144 843 q 143 723 144 775 q 143 619 143 672 q 143 505 143 562 q 145 400 144 448 q 150 318 147 352 q 158 269 154 283 q 220 152 179 205 q 315 61 261 100 q 433 2 369 23 q 563 -19 497 -19 q 725 13 652 -19 q 850 104 798 47 q 929 238 901 162 q 957 401 957 315 l 957 905 q 983 978 957 945 q 1051 1018 1009 1011 "},"Ñ":{"x_min":31.609375,"x_max":391.703125,"ha":422,"o":"m 391 1127 l 381 1132 q 347 1102 368 1113 q 304 1090 327 1090 q 261 1098 281 1090 q 218 1116 240 1107 q 175 1134 197 1126 q 130 1141 154 1141 q 91 1132 108 1141 q 63 1107 75 1122 q 45 1073 52 1091 q 31 1037 37 1054 q 34 1032 30 1034 q 41 1033 38 1030 q 76 1068 55 1054 q 123 1083 97 1083 q 165 1075 144 1083 q 209 1055 187 1066 q 252 1036 230 1044 q 297 1029 273 1029 q 333 1038 318 1029 q 359 1063 348 1048 q 378 1095 370 1077 q 391 1127 386 1112 "},"F":{"x_min":31.609375,"x_max":635.15625,"ha":667,"o":"m 634 1038 q 632 1045 636 1041 q 626 1045 629 1048 q 564 1030 600 1034 q 493 1026 529 1026 q 463 1027 477 1026 q 434 1027 448 1027 q 410 1028 422 1027 q 388 1029 398 1029 l 290 1029 q 37 1033 163 1029 q 31 1029 33 1033 q 34 1023 30 1026 q 66 1009 52 1013 q 91 1002 80 1005 q 114 996 104 1000 q 132 985 125 993 q 144 963 140 977 q 148 927 148 950 l 148 143 q 147 87 148 109 q 137 50 145 65 q 109 27 129 36 q 54 12 90 18 q 50 6 50 11 q 55 1 51 1 l 73 1 q 155 5 115 1 q 192 9 175 8 q 229 11 209 11 q 306 6 266 11 q 345 2 326 4 q 384 1 365 1 l 397 1 l 397 12 q 349 22 372 11 q 309 54 326 34 q 283 97 293 73 q 273 147 273 122 l 273 525 l 433 525 q 526 500 493 525 q 558 413 559 476 q 563 409 558 409 q 569 412 568 408 q 587 511 580 461 q 597 613 594 562 q 593 619 597 618 q 587 618 590 620 q 559 594 576 607 q 527 581 541 581 l 273 581 l 273 957 q 318 959 295 957 q 361 965 340 962 l 359 965 q 409 970 384 968 q 458 973 433 973 q 554 947 519 973 q 588 858 588 922 q 593 853 588 854 q 600 857 598 852 q 616 936 608 897 q 630 1015 623 975 l 634 1038 "},":":{"x_min":30.5625,"x_max":156.953125,"ha":188,"o":"m 156 569 q 137 620 156 597 q 90 643 118 643 q 45 624 61 643 q 30 577 30 605 q 44 529 30 554 q 86 504 58 504 q 134 523 112 504 q 156 569 156 543 m 156 187 q 137 238 156 215 q 90 261 118 261 q 46 242 62 261 q 30 197 30 223 q 44 148 30 173 q 86 123 58 123 q 134 142 111 123 q 156 187 156 161 "},"*":{"x_min":30.5625,"x_max":362.53125,"ha":393,"o":"m 362 840 q 352 882 359 858 q 326 918 344 907 q 319 918 322 920 q 298 897 311 909 q 272 876 286 886 q 243 859 258 866 q 216 852 229 852 l 213 852 q 218 870 213 862 q 225 890 222 879 q 237 934 231 912 q 243 980 243 957 q 238 1008 243 995 q 231 1012 236 1012 q 188 1000 208 1008 q 148 977 168 993 q 147 972 144 973 l 159 938 q 174 900 166 919 q 181 861 181 880 q 180 851 181 855 q 143 875 166 858 q 94 905 119 890 q 48 920 69 920 q 34 918 43 920 q 30 912 30 918 q 31 895 30 904 q 33 875 31 886 q 35 854 34 863 q 36 834 36 845 q 41 829 36 829 q 53 828 47 829 q 65 827 59 827 q 80 826 70 826 q 98 827 91 826 q 134 828 115 829 q 165 820 154 827 q 152 809 159 815 q 137 797 145 804 q 107 771 123 786 q 78 742 91 757 q 55 714 65 727 q 45 691 45 701 q 50 686 45 686 q 89 678 69 682 q 131 675 109 675 l 136 675 q 141 679 141 675 q 160 743 147 711 q 195 800 173 776 q 202 784 198 793 q 211 761 206 776 q 223 727 216 744 q 238 697 230 711 q 254 674 245 683 q 272 665 262 665 q 288 672 280 665 q 302 691 295 680 q 312 711 308 701 q 319 729 316 722 q 300 755 315 744 q 269 777 286 766 q 240 798 254 787 q 225 823 227 809 q 278 825 252 823 q 331 830 304 827 q 344 832 338 832 q 358 833 351 832 l 362 840 "},"°":{"x_min":30.5625,"x_max":405.59375,"ha":436,"o":"m 405 830 q 391 907 405 870 q 352 970 377 943 q 293 1013 327 997 q 216 1029 258 1029 q 145 1013 179 1029 q 86 972 111 998 q 45 911 61 945 q 30 840 30 877 q 45 766 30 800 q 86 705 61 732 q 147 664 112 679 q 222 650 181 650 q 293 663 259 650 q 351 702 326 677 q 391 760 376 727 q 405 830 405 793 m 354 840 q 352 837 352 840 q 341 785 352 809 q 311 743 330 761 q 268 714 293 725 q 216 704 244 704 q 168 713 191 704 q 125 740 144 723 q 95 779 106 757 q 83 827 83 802 q 120 931 83 888 q 219 973 156 973 q 270 963 245 973 q 312 934 294 952 q 341 891 330 915 q 354 840 352 866 "},"\u001e":{"x_min":0,"x_max":0,"ha":501},"V":{"x_min":31.609375,"x_max":1116.75,"ha":1147,"o":"m 1116 1019 l 1115 1030 q 1040 1023 1077 1026 q 966 1020 1002 1020 q 894 1023 930 1020 q 822 1030 858 1026 q 817 1026 818 1032 q 820 1019 816 1020 q 841 1014 827 1018 q 866 1006 854 1011 q 888 994 879 1001 q 898 979 898 987 q 875 854 898 932 q 815 684 851 776 q 737 497 779 593 q 661 322 695 402 q 630 254 644 286 q 605 194 616 222 q 580 258 595 220 q 541 351 565 295 q 494 468 519 405 q 444 595 469 531 q 395 718 419 658 q 354 830 372 779 q 327 920 337 882 q 316 976 316 958 q 325 991 316 984 q 346 1001 334 997 q 370 1009 358 1005 q 390 1013 383 1012 q 392 1020 393 1015 q 388 1025 391 1025 l 344 1025 q 245 1026 293 1025 q 148 1030 197 1027 q 93 1032 120 1032 q 37 1034 65 1033 q 31 1032 33 1034 q 34 1026 30 1029 q 65 1011 52 1015 q 90 1005 79 1008 q 129 991 111 1000 q 162 958 147 983 q 210 864 187 918 q 252 761 233 811 q 261 737 256 750 q 269 715 265 725 q 308 613 288 665 q 347 511 327 562 q 448 244 395 376 q 576 -13 501 112 q 581 -16 579 -16 q 586 -13 584 -16 q 609 37 594 4 q 643 115 625 70 q 684 213 662 161 q 730 320 707 265 q 791 464 759 390 q 854 610 823 538 q 912 746 884 682 q 962 861 940 811 q 1000 943 984 911 q 1022 982 1016 975 q 1055 1003 1037 997 q 1091 1013 1073 1009 q 1104 1016 1098 1015 q 1116 1019 1109 1016 "},"0":{"x_min":30.5625,"x_max":638.9375,"ha":670,"o":"m 638 570 q 622 700 638 636 q 573 814 607 763 q 486 896 540 865 q 358 927 433 927 q 211 893 273 927 q 109 801 150 858 q 50 672 69 744 q 30 525 30 600 q 50 372 30 451 q 111 226 70 293 q 215 115 152 159 q 363 69 277 72 q 483 157 431 102 q 569 280 534 212 q 621 422 604 348 q 638 570 638 497 m 526 531 q 518 424 526 484 q 493 305 511 363 q 446 197 476 247 q 372 122 416 147 q 261 190 306 143 q 188 300 216 238 q 147 429 161 361 q 134 558 134 497 q 141 654 134 600 q 168 759 148 709 q 223 841 188 808 q 312 875 258 875 q 418 840 376 875 q 484 754 459 805 q 517 643 508 702 q 526 531 526 583 "},"@":{"x_min":21.046875,"x_max":945.5625,"ha":972,"o":"m 941 548 q 925 711 954 643 q 841 825 897 780 q 707 891 784 870 q 544 912 629 912 q 354 879 443 911 q 197 788 265 847 q 84 646 129 729 q 25 461 38 563 q 39 295 12 369 q 121 169 66 220 q 252 90 176 118 q 416 63 329 63 q 545 80 483 65 q 675 118 608 95 q 677 119 677 119 q 677 120 677 120 q 672 143 676 126 q 663 158 669 159 q 559 122 612 134 q 452 108 505 109 q 300 136 368 108 q 188 215 233 165 q 125 338 144 266 q 118 494 106 409 q 165 647 130 579 q 256 765 201 716 q 385 840 312 813 q 544 866 458 866 q 687 843 625 866 q 790 774 750 819 q 847 663 830 729 q 852 516 863 598 q 838 453 848 488 q 809 386 827 418 q 765 334 791 355 q 702 312 738 312 q 652 335 669 312 q 638 390 634 358 q 656 494 645 443 q 676 598 666 545 q 683 634 679 616 q 690 666 687 651 q 689 667 690 666 q 688 669 688 668 q 621 693 658 684 q 548 702 584 702 q 450 681 494 702 q 373 627 406 661 q 319 547 340 593 q 291 451 298 501 q 292 385 287 418 q 312 327 297 352 q 353 284 327 301 q 416 268 379 268 l 434 268 q 493 308 462 287 q 554 350 525 329 q 604 288 570 311 q 677 268 637 266 q 778 293 733 268 q 857 360 823 319 q 913 450 891 401 q 941 548 934 500 m 588 584 l 563 390 q 517 359 543 372 q 466 347 491 347 q 416 361 436 347 q 384 399 395 376 q 370 450 373 422 q 372 504 368 477 q 385 553 375 527 q 412 601 395 579 q 451 638 429 623 q 501 652 473 652 q 554 631 531 652 q 588 584 577 609 "},"ö":{"x_min":30.5625,"x_max":825.0625,"ha":856,"o":"m 600 940 q 586 980 600 961 q 548 1000 572 1000 q 509 984 526 1000 q 493 945 493 969 q 509 906 493 925 q 548 887 525 887 q 585 902 570 887 q 600 940 600 918 m 369 940 q 356 979 369 959 q 320 1000 343 1000 q 281 984 298 1000 q 265 947 265 969 q 281 905 265 925 q 320 886 297 886 q 356 902 343 886 q 369 940 369 918 m 825 459 q 792 629 825 548 q 702 768 759 709 q 569 860 645 827 q 404 886 493 893 l 386 884 q 219 831 287 863 q 109 747 151 798 q 49 624 68 697 q 30 450 30 551 q 68 318 30 383 q 165 201 106 252 q 293 118 223 150 q 429 86 363 86 q 579 113 508 86 q 705 191 651 141 q 792 310 759 241 q 825 459 825 379 m 732 461 q 713 334 732 394 q 657 229 694 275 q 566 157 620 184 q 441 130 512 130 q 308 164 366 130 q 209 253 250 198 q 147 376 168 308 q 126 513 126 444 q 146 639 126 580 q 204 743 166 698 q 296 814 241 788 q 422 840 351 840 q 554 807 497 840 q 652 719 612 773 q 711 597 691 665 q 732 461 732 529 "},"i":{"x_min":31.15625,"x_max":294.46875,"ha":325,"o":"m 294 101 l 294 112 q 224 139 244 116 q 204 215 204 162 l 204 787 q 222 833 204 823 q 272 850 241 843 q 275 857 276 851 q 269 861 273 862 q 212 855 241 857 q 154 854 183 854 q 94 855 123 854 q 36 859 65 857 q 31 854 31 859 q 34 848 30 850 q 85 832 63 844 q 106 787 106 819 l 106 211 q 90 149 106 175 q 40 111 75 123 q 36 104 36 109 q 41 100 37 100 q 115 102 79 101 q 188 102 151 102 q 240 102 215 102 q 294 101 266 101 "},"]":{"x_min":31.609375,"x_max":270.859375,"ha":301,"o":"m 270 20 l 270 990 q 265 995 270 995 l 41 995 q 36 991 37 995 q 38 984 34 987 q 63 977 50 979 q 91 972 76 975 q 125 966 108 969 q 154 956 141 962 q 176 938 168 950 q 184 911 184 927 l 184 94 q 177 65 184 76 q 157 50 169 55 q 130 42 145 44 q 98 38 115 40 q 63 35 80 37 q 34 26 47 33 q 31 19 30 23 q 37 15 33 15 l 265 15 q 270 20 270 15 "},"m":{"x_min":31.609375,"x_max":1032.03125,"ha":1063,"o":"m 1032 115 q 1010 121 1020 120 q 990 125 1000 122 q 957 134 970 127 q 927 162 943 140 q 913 204 920 170 q 899 288 907 238 q 884 399 891 338 q 870 523 877 459 q 857 648 863 587 q 847 761 851 709 q 841 829 843 800 q 836 876 838 859 q 833 881 836 880 q 827 879 830 882 q 712 673 766 788 q 609 445 658 558 q 564 342 587 394 q 519 245 541 290 q 491 304 506 269 q 452 387 476 338 q 382 534 420 455 q 309 684 344 613 q 243 809 273 755 q 195 880 212 862 q 189 882 193 883 q 186 877 186 882 q 180 827 183 862 q 172 745 177 791 q 159 629 166 693 q 145 501 152 566 q 131 373 138 436 q 117 261 123 311 q 106 180 111 212 q 98 144 101 148 q 77 125 88 129 q 51 119 66 122 q 34 116 45 119 q 31 109 30 115 q 37 105 33 104 q 65 108 52 108 q 93 108 79 108 q 131 107 112 108 q 170 105 151 106 q 209 103 190 104 q 247 102 227 102 q 252 106 251 102 q 250 113 254 111 q 237 118 247 115 q 222 125 227 122 q 191 140 204 131 q 179 175 179 150 q 187 347 179 262 q 206 518 195 431 q 215 582 211 550 q 223 650 219 615 q 264 563 247 602 q 304 475 281 523 q 392 289 345 381 q 502 108 438 197 q 508 105 505 105 q 512 108 511 105 q 545 177 529 143 q 577 245 561 211 q 675 451 626 350 q 776 654 723 552 q 784 568 779 605 q 794 484 788 531 q 811 329 804 406 q 819 173 819 252 q 815 150 819 162 q 807 125 811 137 q 804 119 805 122 q 802 113 804 116 q 808 106 800 106 q 918 104 862 104 q 1030 104 975 104 l 1032 115 "},"8":{"x_min":30.5625,"x_max":551.4375,"ha":582,"o":"m 551 336 q 504 472 551 418 q 381 551 456 526 q 475 631 436 579 q 513 745 513 683 q 496 819 513 784 q 451 880 479 854 q 386 921 423 907 q 312 936 350 936 q 224 916 266 936 q 148 862 181 895 q 95 786 115 829 q 75 697 75 743 q 114 590 75 633 q 211 526 154 547 q 140 488 173 511 q 84 436 108 466 q 45 371 59 406 q 30 294 30 336 q 53 200 30 243 q 112 128 76 158 q 195 82 148 98 q 290 66 241 66 q 391 88 343 66 q 474 148 438 111 q 530 234 509 186 q 551 336 551 283 m 427 738 q 402 646 427 690 q 336 579 377 602 q 270 594 301 579 q 217 635 240 609 q 181 694 194 661 q 168 761 168 727 q 179 812 168 790 q 209 850 190 834 q 253 875 229 866 q 305 883 277 883 q 357 870 334 883 q 395 838 380 858 q 419 791 411 818 q 427 738 427 765 m 454 304 q 444 242 454 275 q 416 183 434 209 q 371 139 397 156 q 312 122 345 122 q 234 139 269 122 q 176 186 200 156 q 139 253 152 215 q 126 331 126 291 q 168 454 126 405 q 286 504 211 504 q 356 486 325 504 q 409 441 387 469 q 443 376 431 412 q 454 304 454 340 "},"R":{"x_min":31.15625,"x_max":1061.203125,"ha":1092,"o":"m 1061 12 l 1058 23 q 943 43 998 16 q 838 118 888 70 q 741 225 787 165 q 654 341 695 284 q 600 415 626 379 q 554 473 573 451 q 614 538 584 502 q 667 613 644 573 q 704 697 690 654 q 718 786 718 741 q 691 901 718 854 q 621 978 665 948 q 522 1022 577 1008 q 408 1036 466 1036 q 363 1035 384 1036 q 318 1033 341 1034 q 227 1029 272 1029 q 144 1033 186 1029 q 104 1035 125 1034 q 62 1036 83 1036 l 36 1036 q 31 1032 31 1036 q 34 1026 30 1027 q 110 982 77 1015 q 143 904 143 948 l 143 151 q 115 68 143 106 q 48 12 88 30 q 45 4 44 9 q 51 1 47 0 q 136 10 94 6 q 220 13 177 13 q 306 11 263 13 q 393 4 350 8 l 393 15 q 303 60 337 20 q 269 156 269 100 l 269 425 q 300 426 284 426 q 330 426 315 426 q 402 421 366 426 q 466 393 438 416 q 539 315 502 362 q 605 225 576 268 q 668 138 634 181 q 740 59 701 94 q 825 2 779 25 q 925 -19 870 -19 q 995 -11 961 -19 q 1061 12 1029 -2 m 587 713 q 545 555 587 613 q 398 497 504 497 q 335 499 368 497 q 270 506 302 501 l 270 979 q 316 991 293 987 q 362 994 338 994 q 459 969 418 994 q 529 904 501 944 q 572 813 558 863 q 587 713 587 763 "},"o":{"x_min":30.5625,"x_max":825.0625,"ha":856,"o":"m 825 459 q 792 629 825 548 q 702 768 759 709 q 569 860 645 827 q 404 886 493 893 l 386 884 q 219 831 287 863 q 109 747 151 798 q 49 624 68 697 q 30 450 30 551 q 68 318 30 383 q 165 201 106 252 q 293 118 223 150 q 429 86 363 86 q 579 113 508 86 q 705 191 651 141 q 792 310 759 241 q 825 459 825 379 m 732 461 q 713 334 732 394 q 657 229 694 275 q 566 157 620 184 q 441 130 512 130 q 308 164 366 130 q 209 253 250 198 q 147 376 168 308 q 126 513 126 444 q 146 639 126 580 q 204 743 166 698 q 296 814 241 788 q 422 840 351 840 q 554 807 497 840 q 652 719 612 773 q 711 597 691 665 q 732 461 732 529 "},"5":{"x_min":30.5625,"x_max":491.703125,"ha":522,"o":"m 491 904 l 486 909 q 325 901 405 902 q 162 900 244 900 l 126 900 q 120 895 120 900 q 100 746 106 820 q 90 595 93 672 q 95 590 90 590 q 200 562 145 583 q 298 506 254 541 q 371 425 343 472 q 400 319 400 377 q 380 243 400 277 q 329 181 361 208 q 259 140 298 155 q 181 126 220 126 q 122 138 147 126 q 82 170 98 150 q 59 219 66 191 q 54 279 52 247 q 49 284 54 283 q 43 280 44 284 q 32 219 34 250 q 30 158 30 188 q 30 126 30 143 q 31 95 30 111 q 36 90 31 90 q 165 69 98 69 q 283 89 226 69 q 384 146 340 109 q 453 235 427 183 q 479 352 479 287 q 453 484 479 425 q 383 588 427 544 q 278 656 338 632 q 148 680 218 680 l 148 686 q 152 757 148 722 q 159 827 155 793 l 397 827 q 436 810 427 827 q 451 775 445 793 q 465 744 455 755 q 470 741 468 741 q 475 745 473 741 q 491 904 491 820 "},"7":{"x_min":30.5625,"x_max":537.546875,"ha":568,"o":"m 537 891 l 531 900 q 468 899 500 900 q 402 897 436 898 q 334 895 368 895 q 263 894 300 894 q 157 898 211 894 q 54 913 104 902 q 47 909 47 916 q 44 883 45 895 q 40 857 43 870 q 33 804 36 830 q 30 750 30 777 q 31 729 30 738 q 38 708 31 719 q 45 706 41 705 q 48 711 48 707 q 74 775 52 751 q 128 813 95 800 q 200 832 161 827 q 281 836 240 836 q 325 835 301 836 q 366 833 348 834 q 404 831 386 832 q 437 830 422 830 q 450 829 445 830 q 351 656 404 751 q 250 461 298 561 q 165 261 202 361 q 115 77 127 162 q 122 70 115 68 q 152 79 134 73 q 186 94 169 86 q 216 113 202 102 q 236 137 230 125 q 255 196 247 166 q 270 258 263 226 q 282 306 276 283 q 295 352 288 329 q 404 625 343 490 q 537 891 466 761 "},"K":{"x_min":31.15625,"x_max":1041.75,"ha":1072,"o":"m 1041 13 l 1038 23 q 957 42 1001 23 q 867 93 913 61 q 772 167 820 125 q 677 256 725 209 q 585 352 630 304 q 500 444 540 400 q 433 519 463 484 q 376 577 402 554 q 439 640 405 604 q 508 715 473 676 q 602 815 552 763 q 701 910 651 866 q 801 984 751 954 q 898 1019 851 1013 q 902 1025 902 1020 q 898 1030 902 1030 l 857 1032 q 825 1032 841 1032 q 793 1033 809 1033 q 712 1033 752 1033 q 630 1036 672 1033 q 626 1029 622 1036 q 636 991 636 1009 q 613 926 636 962 q 556 850 591 890 q 479 769 522 811 q 397 690 437 727 q 330 626 365 659 q 273 565 295 593 q 271 742 272 657 q 269 919 270 827 q 296 987 269 959 q 361 1018 323 1015 q 365 1023 365 1018 q 361 1029 365 1029 q 352 1029 356 1029 q 343 1030 347 1030 q 280 1031 313 1032 q 218 1027 247 1030 q 163 1025 190 1026 q 109 1023 136 1023 q 36 1027 70 1023 q 31 1023 31 1029 q 34 1016 30 1018 q 72 1006 52 1013 q 106 986 91 998 q 132 958 122 975 q 143 920 143 941 l 143 152 q 141 97 143 120 q 131 56 140 73 q 102 29 122 40 q 48 13 83 19 q 45 7 44 12 q 50 2 45 2 q 132 9 91 6 q 215 12 173 12 q 300 9 256 12 q 386 4 343 6 q 391 8 390 4 q 388 15 393 12 q 357 29 373 23 q 327 40 341 36 q 300 51 311 45 q 281 68 288 56 q 270 100 273 79 q 268 156 268 120 q 268 281 268 219 q 270 408 269 344 q 271 464 270 436 q 272 520 272 493 q 341 449 305 488 q 418 362 376 409 q 536 229 475 297 q 663 105 598 161 q 793 13 727 50 q 923 -22 859 -22 q 1041 13 986 -22 "},",":{"x_min":30.5625,"x_max":151.40625,"ha":182,"o":"m 151 161 q 136 206 151 187 q 97 238 120 226 q 75 229 87 236 q 54 213 63 223 q 37 193 44 204 q 30 170 30 181 q 38 159 33 166 q 48 144 44 151 q 62 122 55 134 q 69 93 69 111 q 63 56 69 73 q 50 19 56 38 l 50 20 q 45 7 47 15 q 40 -9 43 0 q 43 -15 38 -13 q 50 -15 47 -18 q 84 21 66 1 q 116 64 101 41 q 141 111 131 87 q 151 161 151 136 "},"d":{"x_min":29.921875,"x_max":794.515625,"ha":825,"o":"m 794 493 q 766 639 794 570 q 687 759 737 708 q 568 838 637 809 q 419 868 500 868 q 364 867 393 868 q 309 863 336 866 q 254 859 281 861 q 198 858 226 858 q 151 859 176 858 q 105 862 126 861 q 70 864 87 863 q 36 865 54 865 q 31 857 26 865 q 44 847 36 850 q 62 843 52 844 q 95 831 79 840 q 112 790 112 822 l 112 216 q 102 150 112 172 q 45 118 91 127 q 42 111 41 116 q 47 106 43 106 q 128 105 87 108 q 209 100 169 102 q 284 94 245 97 q 358 91 322 91 q 536 115 455 91 q 673 189 616 140 q 762 314 730 238 q 794 493 794 390 m 700 454 q 675 315 700 375 q 604 215 650 255 q 495 156 558 176 q 355 136 431 136 q 290 139 318 136 q 245 155 263 143 q 218 191 227 168 q 209 255 209 215 l 209 807 q 263 819 236 816 q 319 822 291 822 q 472 796 402 822 q 593 722 543 770 q 671 606 643 675 q 700 454 700 538 "},"¨":{"x_min":30.5625,"x_max":356.96875,"ha":388,"o":"m 356 1084 q 344 1121 356 1104 q 311 1138 331 1138 q 276 1125 291 1138 q 261 1090 261 1111 q 275 1052 261 1070 q 311 1034 290 1034 q 343 1050 330 1034 q 356 1084 356 1065 m 125 1084 q 112 1120 125 1102 q 80 1138 100 1138 q 45 1125 61 1138 q 30 1091 30 1111 q 45 1053 30 1072 q 80 1034 59 1034 q 112 1050 100 1034 q 125 1084 125 1065 "},"E":{"x_min":31.484375,"x_max":643.109375,"ha":674,"o":"m 643 180 l 633 181 q 570 83 618 118 q 456 48 522 48 q 405 54 431 48 q 354 70 379 59 q 309 98 330 81 q 275 138 288 115 l 275 525 l 331 525 q 373 525 345 525 q 432 522 402 525 q 488 515 462 520 q 522 500 513 509 q 537 477 533 488 q 544 455 541 466 q 551 434 547 444 q 562 416 555 423 q 568 415 565 413 q 572 420 572 416 q 578 472 575 447 q 586 526 581 498 q 591 569 588 547 q 597 613 594 591 q 590 619 597 622 q 568 612 579 616 q 545 602 556 608 q 516 589 530 595 q 491 583 501 583 l 273 583 l 273 976 l 422 976 q 525 954 484 976 q 570 865 565 933 q 575 860 570 861 q 581 863 580 859 q 584 875 583 870 q 587 887 586 880 q 603 962 595 923 q 615 1040 611 1001 q 607 1044 615 1050 q 574 1037 598 1040 q 516 1033 550 1034 q 439 1031 481 1032 q 352 1030 397 1030 q 230 1031 294 1030 q 120 1033 166 1032 l 36 1033 q 31 1030 33 1033 q 33 1025 30 1027 q 61 1009 48 1013 q 88 1001 75 1004 q 111 995 101 998 q 130 984 122 991 q 143 966 138 977 q 148 933 148 954 l 148 148 q 145 99 148 123 q 131 56 141 75 q 104 25 122 37 q 55 12 86 13 l 55 1 q 144 4 100 4 q 233 4 188 4 q 320 3 277 4 q 408 2 363 2 q 497 1 452 1 q 586 1 541 1 l 607 5 q 611 8 611 9 q 616 13 616 8 l 620 47 l 620 45 q 631 113 626 79 q 643 180 636 147 "},"Y":{"x_min":31.15625,"x_max":1019.53125,"ha":1050,"o":"m 1019 1016 l 1018 1027 q 950 1022 983 1025 q 883 1019 918 1019 q 819 1020 851 1019 q 757 1027 787 1020 q 751 1023 752 1029 q 754 1016 750 1018 q 781 998 769 1011 q 793 968 793 986 q 780 921 793 948 q 750 863 768 894 q 709 800 732 832 q 669 738 687 768 q 643 700 655 718 q 625 670 632 683 q 580 592 598 629 q 547 522 562 555 l 548 522 q 547 519 548 520 q 545 516 545 518 q 509 575 533 536 q 456 661 484 613 q 397 760 427 709 q 342 855 366 811 q 302 932 318 900 q 286 973 286 963 q 296 996 286 987 q 316 1012 306 1005 q 318 1018 319 1015 q 313 1022 318 1022 q 254 1017 284 1019 q 193 1015 223 1015 q 140 1017 166 1015 q 88 1022 113 1019 q 62 1025 75 1023 q 36 1027 50 1026 q 31 1023 31 1027 q 34 1016 30 1018 q 100 967 59 1008 q 189 867 141 926 q 286 738 237 808 q 374 602 334 668 q 438 484 413 537 q 463 404 463 430 l 463 118 q 436 54 463 81 q 376 13 409 26 q 372 7 372 12 q 377 2 373 2 q 463 6 422 5 q 550 8 505 8 q 719 4 633 8 q 724 9 723 4 q 720 15 725 13 q 679 27 701 19 q 636 47 657 34 q 603 77 616 59 q 590 116 590 94 l 590 425 q 613 509 590 455 q 675 624 637 562 q 759 750 712 686 q 854 870 807 815 q 945 966 902 926 q 1019 1016 988 1005 "},"\"":{"x_min":30.5625,"x_max":287.515625,"ha":318,"o":"m 287 1062 q 271 1098 287 1083 q 234 1113 255 1113 q 195 1095 209 1113 q 181 1054 181 1077 q 186 938 181 997 q 198 822 191 880 q 203 775 201 798 q 208 727 205 751 q 217 709 209 716 q 236 702 225 702 q 257 716 252 702 q 262 744 262 730 l 262 751 q 265 800 262 776 q 272 851 269 825 q 282 957 277 904 q 287 1062 287 1011 m 136 1062 q 120 1098 136 1083 q 84 1113 104 1113 q 45 1095 61 1113 q 30 1054 30 1077 q 35 938 30 997 q 47 822 40 880 q 52 775 50 798 q 56 727 54 751 q 66 709 58 716 q 86 702 75 702 q 106 716 101 702 q 111 744 111 730 l 111 751 q 114 800 111 776 q 120 851 118 825 q 131 957 126 904 q 136 1062 136 1011 "},"\u0006":{"x_min":30.5625,"x_max":141.671875,"ha":172,"o":"m 141 1091 q 125 1136 141 1116 q 81 1157 108 1157 q 45 1144 59 1157 q 30 1108 30 1132 q 43 1061 30 1086 q 83 1037 56 1037 q 123 1052 105 1037 q 141 1091 141 1068 "},"´":{"x_min":30.5625,"x_max":263.90625,"ha":294,"o":"m 263 1090 q 259 1111 262 1100 q 252 1132 256 1122 q 238 1150 247 1143 q 218 1157 230 1157 q 176 1142 201 1157 q 125 1107 151 1127 q 72 1068 98 1087 q 30 1040 47 1048 q 129 1075 79 1057 q 231 1091 179 1094 l 263 1090 "},"|":{"x_min":30.5625,"x_max":72.234375,"ha":103,"o":"m 72 5 l 72 1061 q 66 1066 72 1066 l 36 1066 q 30 1061 30 1066 l 30 5 q 36 0 30 0 l 66 0 q 72 5 72 0 "},"§":{"x_min":30.5625,"x_max":529.203125,"ha":560,"o":"m 529 490 q 509 606 529 562 q 457 677 488 651 q 386 717 426 704 q 308 740 347 730 q 243 759 275 748 q 188 787 212 769 q 148 834 163 805 q 133 907 133 862 q 167 1018 133 973 q 272 1063 201 1063 q 349 1054 311 1063 q 423 1033 387 1045 q 430 1036 427 1030 l 455 1105 q 451 1112 456 1109 q 327 1136 391 1136 q 211 1113 261 1136 q 127 1050 161 1090 q 77 957 94 1011 q 61 841 61 902 q 64 789 61 811 q 75 750 68 768 q 96 715 83 732 q 129 677 109 698 q 55 563 80 629 q 30 427 30 498 q 50 313 30 356 q 100 245 69 270 q 170 207 131 220 q 250 184 209 194 q 315 166 283 176 q 372 138 347 156 q 411 92 397 120 q 426 16 426 63 q 280 -134 426 -134 q 209 -127 244 -134 q 140 -106 175 -119 q 133 -111 136 -105 l 108 -179 q 112 -184 106 -183 q 133 -188 122 -187 q 152 -193 144 -190 q 195 -202 173 -198 q 240 -206 216 -206 q 351 -184 302 -206 q 432 -124 400 -162 q 481 -34 465 -86 q 498 75 498 16 q 482 169 498 123 q 430 247 466 215 q 504 358 479 295 q 529 490 529 420 m 458 431 q 456 429 456 431 q 439 343 456 384 q 391 269 422 301 q 350 281 369 276 q 308 291 330 286 q 231 311 268 301 q 166 343 194 322 q 122 397 138 363 q 105 487 105 431 q 120 576 105 531 q 165 657 136 620 q 201 645 184 650 q 236 637 218 641 q 317 613 277 626 q 388 579 356 601 q 438 522 419 558 q 458 431 458 487 "},"Ý":{"x_min":0,"x_max":0,"ha":501},"b":{"x_min":30.359375,"x_max":554.21875,"ha":585,"o":"m 554 323 q 506 456 554 402 q 387 534 459 511 q 452 611 423 568 q 480 707 480 655 q 460 779 480 748 q 409 829 440 809 q 340 860 377 850 q 266 870 302 870 q 225 869 245 870 q 183 865 204 868 q 139 861 161 862 q 97 859 118 859 q 67 861 81 859 q 37 866 52 862 q 31 864 33 868 q 31 858 29 861 q 50 844 38 847 q 73 840 62 841 q 88 837 81 838 q 100 832 95 836 q 109 818 105 827 q 112 790 112 808 l 112 211 q 111 171 112 187 q 103 145 109 155 q 83 127 97 134 q 45 112 69 120 q 42 106 41 111 q 47 101 43 101 q 112 101 80 101 q 179 100 145 101 q 244 98 212 98 q 311 98 277 98 q 403 114 359 98 q 480 159 447 130 q 534 230 513 188 q 554 323 554 272 m 393 691 q 380 618 393 645 q 344 574 368 590 q 288 552 320 558 q 215 547 255 547 l 211 547 l 211 825 q 238 832 225 829 q 266 834 252 834 q 320 822 297 834 q 360 791 344 811 q 384 745 376 770 q 393 691 393 719 m 462 293 q 452 234 462 262 q 422 183 441 205 q 377 147 404 161 q 319 134 351 134 q 284 140 302 134 q 248 156 265 145 q 220 181 231 166 q 209 213 209 195 l 209 504 q 304 491 259 502 q 385 454 350 479 q 441 388 420 429 q 462 293 462 348 "},"q":{"x_min":30.5625,"x_max":1489.015625,"ha":870,"o":"m 1489 -31 l 1483 -22 q 1377 -56 1432 -45 q 1266 -66 1322 -66 q 1105 -47 1184 -66 q 950 3 1026 -27 q 802 75 875 34 q 661 155 729 115 q 786 306 743 215 q 830 498 830 398 q 799 651 830 581 q 714 770 768 720 q 588 847 661 820 q 436 875 516 875 q 277 844 351 875 q 149 759 204 813 q 62 632 94 705 q 30 475 30 559 q 59 312 30 386 q 141 185 88 238 q 267 102 194 131 q 429 73 340 73 q 505 81 465 73 q 577 105 545 90 q 599 99 584 105 q 631 84 613 93 q 666 66 648 76 q 700 48 684 56 l 700 50 q 716 40 709 44 q 727 33 723 36 q 841 -20 782 5 q 961 -65 900 -45 q 1084 -97 1022 -86 q 1209 -109 1147 -109 q 1354 -90 1283 -109 q 1489 -31 1425 -70 m 725 491 q 707 373 725 430 q 658 268 690 316 q 580 181 626 219 q 477 122 534 144 q 342 174 405 136 q 231 268 279 212 q 155 391 183 323 q 127 533 127 459 q 150 654 127 600 q 211 748 172 709 q 306 808 251 787 q 429 829 362 829 q 554 801 500 829 q 647 727 609 773 q 704 619 684 680 q 725 491 725 558 "},"Ö":{"x_min":30.5625,"x_max":1105.640625,"ha":1136,"o":"m 1105 484 q 1061 710 1105 605 q 941 893 1018 815 q 759 1015 863 970 q 534 1059 655 1059 q 522 1059 529 1059 q 511 1058 516 1059 q 286 986 377 1030 q 137 874 194 943 q 55 707 80 805 q 30 472 30 608 q 54 351 30 411 q 118 237 77 291 q 213 136 159 183 q 326 54 266 88 q 448 0 386 19 q 569 -19 511 -19 q 773 18 676 -19 q 944 122 870 55 q 1061 282 1018 190 q 1105 484 1105 375 m 984 487 q 959 315 984 397 q 882 172 933 234 q 757 74 832 111 q 587 37 683 37 q 404 84 484 37 q 270 204 325 130 q 186 370 215 277 q 158 556 158 463 q 184 729 158 648 q 262 871 211 811 q 388 967 313 932 q 561 1002 463 1002 q 743 957 663 1002 q 875 837 822 911 q 957 672 929 763 q 984 487 984 580 m 730 876 q 716 916 730 897 q 679 936 702 936 q 641 920 657 936 q 626 883 626 904 q 641 842 626 862 q 679 822 657 822 q 716 838 701 822 q 730 876 730 854 m 506 876 q 493 916 506 897 q 456 936 480 936 q 418 920 434 936 q 401 883 401 905 q 417 842 401 862 q 455 822 433 822 q 492 838 477 822 q 506 876 506 854 "},"z":{"x_min":29.921875,"x_max":616.71875,"ha":647,"o":"m 616 266 l 607 270 q 580 233 595 252 q 545 197 565 213 q 504 169 526 180 q 461 158 483 158 l 195 156 q 175 156 184 156 q 154 158 165 156 q 394 504 276 331 q 608 854 512 677 q 608 859 611 857 q 602 862 605 862 q 538 861 575 862 q 469 859 501 861 q 389 857 429 858 q 309 855 350 855 q 193 860 251 855 q 86 876 136 865 q 79 872 79 879 q 74 836 76 857 q 69 800 72 815 q 63 754 66 779 q 54 705 61 730 q 56 699 52 701 q 63 700 61 697 q 118 761 97 738 q 163 797 140 784 q 216 813 186 809 q 298 816 247 816 q 343 817 322 816 q 387 818 365 818 l 477 818 q 483 818 480 818 q 488 816 486 818 q 412 700 450 757 q 334 584 375 644 q 179 350 256 466 q 31 111 102 233 q 36 102 26 102 l 102 102 q 150 102 126 102 q 197 101 173 101 q 284 100 241 101 q 372 100 327 100 q 584 104 477 100 q 590 108 590 104 q 591 116 591 112 q 593 125 591 120 q 603 195 600 161 q 616 266 607 230 "},"™":{"x_min":31.5625,"x_max":884.234375,"ha":915,"o":"m 882 563 q 843 607 858 577 q 820 675 829 637 q 806 756 811 713 q 797 838 801 798 q 791 904 794 875 q 782 957 787 934 q 777 961 780 961 q 772 958 775 961 q 716 868 740 913 q 672 777 691 822 q 642 711 657 744 q 615 657 627 679 q 589 706 600 683 q 566 757 579 729 q 517 857 543 807 q 454 958 491 908 q 448 961 451 961 q 444 957 445 961 q 436 913 440 940 q 427 851 431 886 q 416 766 422 811 q 400 680 409 720 q 379 610 391 640 q 348 569 366 580 q 345 563 345 566 q 350 559 345 561 q 413 554 381 555 q 479 554 445 554 q 484 557 483 554 q 481 563 484 561 q 453 603 461 579 q 445 652 445 627 q 449 697 445 675 q 456 744 452 720 q 461 775 459 759 q 465 805 463 790 q 488 761 480 780 q 509 715 497 743 q 548 636 527 676 q 600 555 569 595 q 608 555 605 550 q 616 570 612 562 q 625 586 620 579 q 681 696 652 643 q 737 807 709 750 l 738 805 q 748 684 741 743 q 762 562 755 625 q 766 558 762 558 q 806 554 786 555 q 847 554 826 554 l 880 554 q 884 557 883 554 q 882 563 884 561 m 376 944 l 370 950 q 329 948 351 950 q 283 945 306 947 q 228 943 256 944 q 172 941 200 941 q 111 944 140 941 q 58 955 81 947 q 51 951 54 957 q 39 911 44 932 q 31 870 34 891 q 34 864 30 866 q 40 865 37 862 q 101 895 66 888 q 169 905 136 902 l 172 905 l 172 593 q 156 575 172 577 q 127 572 140 572 q 123 566 123 572 q 127 561 123 561 q 209 555 168 556 q 290 554 250 554 q 295 558 294 554 q 293 565 297 562 q 287 566 290 566 q 280 569 284 566 q 256 579 269 573 q 244 591 244 584 l 244 904 q 262 903 252 902 q 279 905 272 904 q 291 906 286 905 q 304 907 297 907 q 358 859 352 907 q 363 854 358 855 q 369 858 368 854 q 375 900 373 879 q 376 944 376 920 "},"\u000b":{"x_min":30.5625,"x_max":241.6875,"ha":272,"o":"m 241 -126 q 191 -129 215 -133 q 150 -111 168 -125 q 120 -76 131 -97 q 109 -27 109 -55 q 132 39 109 9 q 187 84 155 69 q 134 66 162 77 q 84 38 106 55 q 45 0 61 22 q 30 -54 30 -23 q 40 -96 30 -77 q 65 -129 50 -115 q 102 -150 81 -143 q 145 -158 123 -158 q 196 -150 172 -158 q 241 -126 220 -141 "},"æ":{"x_min":30.5625,"x_max":900.078125,"ha":931,"o":"m 900 216 q 855 140 888 168 q 773 112 822 112 q 700 128 737 112 q 643 177 662 144 l 643 437 q 697 436 670 433 q 751 438 723 438 q 804 429 787 438 q 829 406 822 419 q 840 381 837 394 q 850 362 843 368 q 854 431 850 398 q 862 500 858 465 q 832 483 851 493 q 800 473 812 473 l 643 473 l 643 818 q 693 818 668 815 q 743 820 718 820 q 820 802 788 820 q 851 732 852 784 q 864 753 859 736 q 871 792 869 770 q 875 834 873 813 q 876 863 876 854 q 810 852 844 852 q 744 851 776 851 q 661 852 702 851 q 577 854 619 854 q 559 843 569 854 q 540 819 550 833 q 522 791 530 805 q 511 770 515 777 q 450 661 483 723 q 380 532 418 600 q 301 397 343 465 q 215 269 259 329 q 125 162 172 209 q 30 88 77 115 l 288 88 q 243 110 265 95 q 222 154 222 125 q 242 219 222 183 q 288 293 262 255 q 338 368 313 330 q 375 437 363 405 l 562 437 l 562 191 q 560 156 562 175 q 552 125 558 138 q 533 102 545 111 q 500 93 520 93 q 673 86 587 90 q 847 81 759 81 q 880 97 870 81 q 893 134 890 112 q 896 178 897 155 q 900 216 895 201 m 559 475 l 393 475 q 474 619 433 547 q 559 762 515 691 l 559 475 "},"®":{"x_min":30.5625,"x_max":930.625,"ha":961,"o":"m 930 484 q 898 650 930 563 q 810 810 866 737 q 679 930 754 883 q 518 977 604 977 q 347 938 434 977 q 190 835 261 900 q 75 688 119 770 q 30 519 30 607 q 75 337 30 419 q 193 197 120 255 q 356 106 265 138 q 538 75 447 75 q 681 112 611 75 q 807 209 751 150 q 896 341 862 269 q 930 484 930 413 m 561 615 q 541 543 561 576 q 477 511 520 511 q 423 523 450 511 l 423 737 q 456 741 440 741 q 501 730 481 741 q 534 701 520 719 q 554 660 547 683 q 561 615 561 637 m 863 570 q 836 426 863 494 q 763 300 809 358 q 713 359 741 331 q 658 411 686 386 q 609 456 634 433 q 568 498 584 479 q 618 570 597 531 q 640 655 640 609 q 628 708 640 686 q 597 744 616 730 q 553 765 579 758 q 501 772 527 772 l 297 772 q 292 768 293 772 q 294 762 291 765 q 304 756 297 759 q 318 750 311 752 q 340 741 329 747 q 351 723 351 734 l 351 327 q 341 306 351 312 q 319 297 331 301 q 306 293 312 294 q 294 284 301 291 q 292 278 291 281 q 297 275 293 275 l 479 275 q 483 283 488 275 q 467 296 476 291 q 450 304 458 301 q 429 311 434 306 q 423 381 425 347 q 422 450 422 415 l 422 479 q 437 484 429 481 q 452 487 445 487 q 519 454 488 487 q 579 380 550 420 q 611 336 595 358 q 645 298 627 315 q 681 272 662 281 q 723 262 701 262 l 730 262 q 636 184 687 218 q 526 127 584 150 q 367 173 441 136 q 236 268 293 211 q 147 402 180 326 q 115 563 115 477 q 147 713 115 648 q 233 823 179 779 q 359 890 287 868 q 511 912 430 912 q 652 888 587 912 q 764 820 718 865 q 837 713 811 776 q 863 570 863 650 "},"É":{"x_min":30.5625,"x_max":272.25,"ha":303,"o":"m 272 1084 q 268 1107 270 1094 q 259 1129 265 1119 q 243 1147 252 1140 q 220 1154 234 1154 q 163 1130 200 1154 q 91 1079 127 1107 q 63 1057 76 1068 q 33 1037 50 1047 q 31 1029 29 1034 q 37 1027 33 1025 l 70 1038 q 152 1067 111 1052 q 234 1079 193 1082 l 266 1077 q 272 1084 272 1077 "},"³":{"x_min":0,"x_max":0,"ha":501},"¡":{"x_min":30.5625,"x_max":145.84375,"ha":176,"o":"m 145 900 q 129 945 145 923 q 88 968 113 968 q 50 952 65 968 q 34 912 34 936 q 48 869 34 891 q 86 847 62 847 q 127 861 108 847 q 145 900 145 876 m 141 166 q 138 315 141 237 q 129 473 136 394 q 111 629 122 552 q 84 776 101 707 q 65 600 72 688 q 55 424 59 512 q 45 247 51 336 q 30 72 40 159 q 59 85 40 75 q 96 110 77 95 q 128 140 115 125 q 141 166 141 155 "},"[":{"x_min":30.5625,"x_max":261.46875,"ha":293,"o":"m 258 19 l 256 29 q 239 32 250 31 q 216 34 229 33 q 181 39 200 36 q 148 48 163 43 q 123 63 133 54 q 113 87 113 72 l 113 912 q 141 956 113 945 q 202 972 169 966 q 232 977 218 975 q 258 984 247 979 q 261 991 262 987 q 255 995 259 995 l 36 995 q 30 990 30 995 l 30 20 q 36 15 30 15 q 120 13 77 13 q 206 12 162 12 l 211 12 q 235 13 222 12 q 258 19 248 13 "},"L":{"x_min":30.5625,"x_max":676.4375,"ha":707,"o":"m 676 193 l 665 197 q 572 91 633 131 q 440 51 512 51 q 370 62 402 51 q 315 94 338 73 q 277 145 291 115 q 263 215 263 176 l 263 916 q 296 988 263 961 q 369 1022 329 1015 q 372 1028 373 1023 q 368 1033 372 1033 q 286 1027 327 1030 q 204 1025 245 1025 q 30 1029 115 1025 l 30 1018 q 106 989 75 1016 q 137 915 137 962 l 137 150 q 131 107 137 130 q 113 65 125 84 q 84 31 101 45 q 45 16 66 18 q 41 11 41 16 q 45 5 41 5 q 83 6 62 6 q 123 8 105 6 q 352 12 237 12 q 634 0 493 12 q 640 2 637 0 q 643 7 641 5 q 644 9 644 9 q 643 15 644 13 q 665 90 659 51 q 673 170 670 130 q 674 181 673 176 q 676 193 675 186 "}," ":{"x_min":0,"x_max":0,"ha":339},"%":{"x_min":30.5625,"x_max":880.625,"ha":911,"o":"m 880 295 q 868 370 880 333 q 835 434 857 406 q 781 479 813 462 q 707 497 748 497 q 627 481 663 497 q 566 438 591 465 q 526 373 540 411 q 512 294 512 336 q 525 216 512 254 q 560 150 537 179 q 616 104 583 122 q 693 87 650 87 q 770 104 736 87 q 829 151 805 122 q 867 218 854 180 q 880 295 880 255 m 666 920 l 661 929 q 609 925 643 926 q 536 920 576 923 q 420 913 481 916 q 302 904 358 909 q 203 894 245 900 q 147 883 161 888 q 63 815 95 859 q 30 712 30 770 q 45 634 30 673 q 88 561 61 594 q 150 509 115 529 q 227 488 186 488 q 304 510 269 488 q 365 566 340 531 q 404 641 390 600 q 418 719 418 682 q 354 857 418 805 q 461 868 408 865 q 568 873 515 870 q 580 874 575 873 q 593 875 586 875 q 450 554 522 713 q 305 236 377 395 q 272 163 288 200 q 240 90 256 126 q 245 81 237 81 q 254 81 250 81 q 263 80 259 80 q 295 83 279 79 q 323 98 311 87 q 354 164 331 113 q 407 286 377 215 q 472 442 437 358 q 539 607 506 526 q 600 759 572 688 q 647 875 629 830 q 659 902 654 891 q 666 920 663 913 m 804 311 q 799 259 804 286 q 784 208 794 233 q 758 162 773 183 q 720 127 743 141 q 663 154 688 134 q 619 200 637 173 q 591 257 601 226 q 581 319 581 288 q 611 416 581 373 q 697 458 640 458 q 746 444 726 458 q 779 409 766 430 q 797 362 791 388 q 804 311 804 336 m 336 713 q 317 615 336 665 q 254 540 298 565 q 192 558 219 541 q 147 601 165 575 q 120 659 129 627 q 111 722 111 690 q 118 774 111 748 q 138 820 125 800 q 174 852 152 840 q 225 865 195 865 q 275 851 254 865 q 310 815 297 837 q 329 766 323 793 q 336 713 336 740 "},"P":{"x_min":31.15625,"x_max":697.28125,"ha":728,"o":"m 697 788 q 677 905 697 859 q 622 979 658 951 q 536 1018 587 1007 q 423 1029 486 1029 l 251 1029 q 144 1030 198 1029 q 36 1034 90 1032 q 31 1030 31 1034 q 34 1025 30 1026 q 72 1011 52 1020 q 106 989 91 1002 q 132 959 122 976 q 143 920 143 941 l 143 150 q 141 93 143 116 q 131 54 140 70 q 104 29 123 38 q 50 13 84 19 q 46 7 45 12 q 51 2 47 2 q 115 1 83 1 q 179 1 147 1 l 391 1 q 395 6 395 1 q 391 12 395 12 q 297 43 325 15 q 269 137 269 72 l 269 966 q 369 988 322 988 q 461 965 420 988 q 531 903 502 941 q 574 818 559 865 q 588 723 588 770 q 572 626 588 670 q 527 550 556 581 q 454 500 497 518 q 356 483 411 483 q 340 483 348 483 q 325 484 333 483 q 320 480 320 486 q 323 473 319 475 q 404 462 365 462 q 521 491 468 462 q 613 565 575 519 q 675 669 652 611 q 697 788 697 727 "},"_":{"x_min":30.5625,"x_max":605.609375,"ha":636,"o":"m 605 -268 l 605 -213 q 600 -208 605 -208 l 36 -208 q 30 -213 30 -208 l 30 -268 q 36 -273 30 -273 l 600 -273 q 605 -268 605 -273 "},"+":{"x_min":30.5625,"x_max":1004.25,"ha":1035,"o":"m 1004 544 l 1004 597 q 998 602 1004 602 l 545 602 l 545 1065 q 540 1070 545 1070 l 488 1070 q 483 1065 483 1070 l 483 602 l 36 602 q 30 597 30 602 l 30 544 q 36 538 30 538 l 483 538 l 483 79 q 488 73 483 73 l 540 73 q 545 79 545 73 l 545 538 l 998 538 q 1004 544 1004 538 "},"'":{"x_min":30.5625,"x_max":138.90625,"ha":169,"o":"m 138 1062 q 122 1099 138 1084 q 84 1113 105 1113 q 45 1095 61 1113 q 30 1054 30 1077 q 35 943 30 998 q 47 830 40 888 q 52 779 50 804 q 58 727 55 754 q 68 709 59 716 q 87 702 76 702 q 109 716 105 702 q 112 743 112 729 l 112 751 q 118 794 115 772 q 122 840 120 816 l 133 1057 q 138 1062 138 1057 "},"Š":{"x_min":0,"x_max":0,"ha":501},"ª":{"x_min":30.5625,"x_max":509.765625,"ha":540,"o":"m 509 562 q 436 629 470 577 q 370 744 401 682 q 311 868 338 807 q 259 966 283 930 q 230 905 245 941 q 198 827 215 869 q 163 743 181 786 q 123 664 144 701 q 79 600 102 627 q 30 563 56 573 q 65 562 48 562 q 100 562 81 562 q 136 562 118 562 q 172 563 154 562 q 153 595 161 579 q 145 630 145 611 q 155 661 145 648 q 179 681 165 673 q 209 692 193 688 q 241 695 226 695 q 286 690 263 695 q 329 672 309 684 q 361 641 348 659 q 373 597 373 622 q 369 568 373 581 q 423 563 397 563 q 477 562 450 562 l 509 562 m 308 725 l 195 725 q 222 791 208 758 q 250 858 236 825 q 282 793 268 826 q 308 725 297 759 "},"T":{"x_min":30.5625,"x_max":887.578125,"ha":918,"o":"m 887 1022 l 887 1033 q 883 1038 887 1038 q 864 1036 873 1037 q 848 1033 855 1034 q 824 1027 837 1030 q 800 1023 811 1023 l 197 1023 q 133 1028 161 1023 q 76 1051 105 1033 q 68 1048 70 1057 q 61 1022 65 1036 q 52 995 56 1009 q 37 941 44 968 q 30 887 30 915 q 33 862 30 876 q 36 857 33 858 q 43 861 40 857 q 93 931 59 900 q 172 962 127 962 l 401 962 l 401 141 q 399 86 401 108 q 388 51 397 65 q 360 29 379 37 q 308 13 341 20 q 304 7 304 12 q 309 2 305 2 q 381 7 345 5 q 452 9 416 9 q 552 6 502 9 q 650 0 601 4 q 654 4 654 0 q 651 11 655 9 q 563 58 598 19 q 527 152 527 97 l 527 963 l 695 963 q 754 959 726 963 q 804 941 782 954 q 841 907 826 929 q 862 851 855 886 q 868 847 863 847 q 873 851 872 847 q 886 935 884 888 q 887 1022 887 982 "},"Þ":{"x_min":0,"x_max":0,"ha":501},"j":{"x_min":-23.609375,"x_max":280.578125,"ha":308,"o":"m 280 847 l 279 858 q 229 859 254 859 q 180 858 204 858 q 154 857 168 858 q 129 857 141 857 q 38 861 81 857 q 33 857 34 861 q 36 851 31 854 q 56 842 50 844 q 70 837 63 840 q 102 822 88 832 q 115 784 115 813 l 115 177 q 107 80 115 122 q 83 2 100 38 q 40 -66 66 -33 q -22 -138 13 -100 q -22 -146 -25 -141 q -15 -148 -19 -151 q 71 -94 30 -126 q 143 -21 112 -62 q 193 66 175 19 q 211 168 211 113 l 211 784 q 230 829 211 818 q 280 847 250 841 "},"1":{"x_min":31.484375,"x_max":426.421875,"ha":457,"o":"m 426 94 q 405 109 419 105 q 375 113 391 112 q 346 118 361 115 q 320 129 331 120 q 302 153 309 137 q 294 197 294 169 q 294 355 294 277 q 295 513 294 434 q 297 670 297 593 q 297 827 297 748 l 297 848 q 297 888 297 869 q 294 929 297 909 q 287 934 294 937 q 156 858 220 900 q 33 768 91 816 q 31 761 30 765 q 37 758 33 757 q 73 768 56 761 q 106 783 90 776 q 141 797 125 791 q 169 804 158 804 q 198 791 186 804 l 198 190 q 190 149 198 163 q 169 127 183 134 q 138 115 155 119 q 102 111 120 112 q 77 108 88 109 q 55 104 66 106 q 52 97 51 102 q 56 93 52 93 q 239 87 148 88 q 422 86 330 86 l 426 94 "},"ä":{"x_min":31.15625,"x_max":793.125,"ha":824,"o":"m 577 926 q 563 966 577 947 q 526 986 550 986 q 487 970 502 986 q 472 932 472 955 q 487 893 472 912 q 526 873 502 873 q 563 889 548 873 q 577 926 577 905 m 348 926 q 334 966 348 945 q 298 986 320 986 q 259 970 276 986 q 243 933 243 955 q 259 892 243 912 q 298 872 275 872 q 334 888 320 872 q 348 926 348 905 m 793 106 l 793 118 q 734 134 759 120 q 691 180 708 148 q 550 487 612 330 q 431 800 488 644 q 417 838 425 819 q 402 876 409 857 q 397 880 401 880 q 391 876 393 880 q 341 738 365 807 q 293 600 318 669 q 219 395 256 497 q 141 193 181 294 l 141 194 q 34 113 111 123 q 31 106 30 112 q 36 102 31 101 q 91 107 63 105 q 147 109 119 109 q 202 107 175 109 q 256 102 230 105 l 256 113 q 222 122 240 116 q 204 150 204 129 q 213 199 204 165 q 236 271 223 233 q 261 345 248 309 q 281 398 275 380 l 497 398 q 546 268 520 331 q 595 140 572 205 l 541 113 q 538 106 537 111 q 544 102 540 102 q 608 108 576 105 q 672 111 640 111 q 696 110 684 111 q 719 108 708 109 q 756 105 738 106 q 793 106 773 104 m 476 444 l 297 444 q 345 589 323 519 q 390 733 366 659 l 476 444 "},"<":{"x_min":30.5625,"x_max":287.515625,"ha":318,"o":"m 287 363 l 287 372 q 250 409 279 380 q 192 468 222 437 q 138 526 162 500 q 115 556 115 552 q 139 592 115 562 q 193 658 163 622 q 249 727 222 694 q 283 775 276 759 q 281 782 286 779 q 273 782 276 784 q 150 669 211 726 q 31 550 88 612 q 31 544 29 547 q 131 423 80 481 q 236 315 183 365 q 244 316 241 309 q 262 340 252 327 q 287 363 272 352 "},"£":{"x_min":29.921875,"x_max":654.21875,"ha":685,"o":"m 654 898 q 651 902 654 900 q 600 927 627 918 q 543 936 572 936 q 422 898 480 936 q 318 804 363 861 q 244 682 272 748 q 216 556 216 615 q 216 540 216 548 q 219 525 216 533 q 213 520 216 522 q 206 518 209 519 q 184 520 198 518 q 137 522 159 526 q 106 479 115 518 q 112 472 104 472 q 164 473 137 475 q 216 469 191 472 q 208 424 211 448 q 202 376 205 400 q 187 282 195 329 q 156 198 179 236 q 113 154 141 170 q 62 127 84 138 q 31 105 43 118 q 36 97 26 97 q 142 92 88 94 q 250 90 195 90 q 312 89 277 90 q 376 87 347 88 q 439 84 408 86 q 502 83 470 83 q 609 113 566 83 q 652 213 652 144 q 651 234 652 225 q 647 255 650 244 q 638 256 644 265 q 593 201 611 220 q 559 172 576 181 q 518 162 541 163 q 455 161 494 161 l 384 161 q 287 161 334 161 q 190 163 240 161 q 279 306 254 226 q 308 473 304 387 q 320 475 313 475 q 333 475 327 475 q 347 475 340 475 q 363 473 355 475 q 385 471 375 472 q 406 470 395 470 q 461 479 437 470 q 493 520 486 488 q 487 527 495 527 q 401 523 443 523 q 359 525 380 523 q 316 529 338 526 q 308 577 308 554 q 325 665 308 613 q 369 764 341 716 q 434 845 397 812 q 513 879 472 879 q 555 866 537 879 q 587 834 573 854 q 610 793 601 815 q 626 751 619 770 l 636 750 q 650 795 648 769 q 652 844 652 820 l 652 876 l 654 898 "},"¹":{"x_min":0,"x_max":0,"ha":501},"t":{"x_min":30.5625,"x_max":665.328125,"ha":696,"o":"m 665 866 l 658 872 q 648 869 652 870 q 638 866 644 868 q 600 859 615 859 l 155 859 q 109 863 130 859 q 66 880 87 866 q 58 877 61 884 q 52 859 55 868 q 47 840 50 850 q 36 800 41 820 q 30 758 30 780 l 33 740 q 37 734 33 736 q 43 737 41 733 q 79 788 54 766 q 137 811 104 811 l 304 811 l 304 208 q 302 168 304 184 q 294 143 301 152 q 274 127 287 133 q 237 115 261 120 q 234 108 233 113 q 238 104 234 102 q 293 108 266 106 q 347 109 319 109 q 418 107 383 109 q 488 102 452 105 q 493 107 493 102 q 490 113 494 112 q 426 148 451 120 q 401 216 401 176 l 401 812 l 523 812 q 600 796 568 812 q 644 732 633 780 q 648 727 645 727 q 654 732 652 727 q 663 798 662 762 q 665 866 665 834 "},"¬":{"x_min":30.5625,"x_max":1269.546875,"ha":1300,"o":"m 1255 413 q 1247 450 1252 429 q 1226 481 1241 472 q 1183 443 1211 465 q 1132 420 1155 420 l 1123 420 q 1140 479 1130 451 q 1150 540 1150 508 q 1148 551 1150 545 q 1145 562 1147 556 q 1108 552 1126 559 q 1075 533 1090 545 q 1094 485 1083 509 q 1105 433 1105 461 q 1102 418 1105 426 q 1075 434 1090 423 q 1043 456 1059 445 q 1010 474 1026 466 q 982 481 994 481 q 976 481 979 481 q 970 480 973 480 q 973 445 970 462 q 976 409 976 427 l 998 408 q 1021 409 1008 408 q 1048 411 1034 411 q 1074 409 1062 411 q 1093 398 1086 406 q 1066 375 1084 390 q 1030 343 1048 359 q 998 310 1012 326 q 984 283 984 294 q 1020 276 1002 279 q 1055 273 1037 273 l 1061 273 q 1077 334 1065 304 q 1113 387 1090 363 q 1126 358 1119 379 q 1141 316 1133 337 q 1160 279 1150 295 q 1182 263 1170 263 q 1194 270 1188 263 q 1204 284 1200 276 q 1213 302 1209 293 q 1218 316 1216 311 q 1200 340 1213 330 q 1171 359 1186 350 q 1145 379 1157 368 q 1133 405 1133 390 q 1195 408 1165 405 q 1255 413 1225 411 m 1269 -11 q 1169 16 1222 -11 q 1061 89 1116 44 q 951 190 1007 134 q 845 301 895 245 q 750 406 794 356 q 673 487 707 455 q 742 554 709 519 q 807 625 775 588 q 818 518 813 572 q 823 409 823 463 q 818 361 823 383 q 924 356 870 358 q 1030 354 977 354 q 1000 361 1013 359 q 972 366 986 363 q 946 376 958 369 q 922 398 934 383 q 902 453 911 412 q 886 541 893 494 q 875 631 880 587 q 869 695 870 675 q 926 753 894 722 q 994 812 958 784 q 1068 860 1030 840 q 1144 884 1107 880 q 1025 886 1084 887 q 907 890 966 886 q 916 855 916 873 q 898 801 916 827 q 865 755 880 775 q 848 895 858 826 q 829 1033 838 963 q 760 928 793 983 q 697 816 727 873 q 640 700 668 758 q 583 586 612 641 l 580 791 q 605 854 580 827 q 666 883 630 880 q 522 888 594 887 q 377 890 450 890 q 401 877 384 877 q 434 872 418 876 q 464 854 451 869 q 477 801 477 840 l 477 533 q 443 596 466 554 q 393 690 420 638 q 334 797 365 741 q 274 902 302 854 q 222 986 245 950 q 186 1033 198 1022 q 177 958 183 1012 q 161 834 170 904 q 143 686 152 763 q 124 543 133 609 q 107 432 115 477 q 95 381 100 387 q 66 362 81 363 q 30 358 51 361 q 136 354 83 355 q 241 352 188 352 q 208 363 222 361 q 185 372 194 366 q 172 387 176 377 q 168 420 168 397 q 184 636 168 530 q 213 850 201 741 q 277 733 247 793 q 338 615 306 673 q 403 499 369 556 q 477 388 437 441 l 477 108 q 476 56 477 77 q 466 22 475 36 q 441 1 458 9 q 390 -12 423 -6 q 539 -17 465 -16 q 688 -18 613 -18 q 640 -3 661 -4 q 606 3 619 -2 q 586 31 593 9 q 580 112 580 54 l 580 447 q 659 365 616 413 q 751 261 702 316 q 851 152 800 206 q 956 55 902 98 q 1062 -14 1009 12 q 1166 -41 1115 -41 q 1269 -11 1220 -41 m 797 684 q 687 577 743 629 q 583 462 632 526 l 583 505 q 677 681 630 594 q 777 854 725 768 q 786 768 782 811 q 797 684 791 726 "},"W":{"x_min":30.5625,"x_max":1433.453125,"ha":1464,"o":"m 1433 1012 l 1433 1023 q 1380 1022 1407 1022 q 1326 1022 1354 1022 q 1234 1023 1280 1022 q 1141 1029 1187 1025 q 1137 1023 1137 1029 q 1141 1018 1137 1018 q 1165 1012 1151 1016 q 1192 1001 1179 1008 q 1215 984 1205 994 q 1225 962 1225 975 q 1208 786 1225 883 q 1166 587 1191 688 q 1112 388 1141 486 q 1058 212 1083 291 q 1015 338 1034 279 q 973 465 995 398 q 876 752 926 611 q 759 1029 826 894 q 753 1031 757 1032 q 748 1027 750 1030 q 591 624 669 829 q 438 218 513 419 q 417 331 429 276 q 394 444 405 387 q 341 711 366 577 q 301 975 315 844 q 338 1001 318 990 q 380 1019 359 1012 q 383 1026 384 1020 q 377 1030 381 1032 q 300 1022 338 1025 q 225 1019 262 1019 q 144 1024 184 1019 q 63 1033 104 1029 q 50 1034 56 1034 q 37 1036 44 1034 q 31 1034 33 1037 q 33 1027 29 1030 q 50 1018 43 1022 q 65 1009 58 1013 q 93 994 80 1001 q 116 977 105 987 q 138 953 127 968 q 159 918 148 938 q 198 820 179 879 q 236 689 218 761 q 271 538 254 618 q 305 380 288 459 q 328 270 316 326 q 352 164 340 215 q 377 68 365 113 q 400 -12 388 22 q 404 -17 401 -16 q 411 -13 408 -18 q 452 87 430 30 q 497 203 475 144 q 542 319 520 262 q 581 422 563 376 q 653 609 618 516 q 729 797 688 702 q 779 659 757 726 q 825 520 801 593 q 920 248 870 384 q 1036 -13 970 112 q 1040 -16 1037 -16 q 1045 -13 1044 -16 q 1071 60 1055 11 q 1106 172 1087 109 q 1144 306 1125 236 q 1183 444 1163 377 q 1232 622 1208 533 q 1278 783 1257 711 q 1318 904 1300 855 q 1347 966 1336 954 q 1386 1000 1366 986 q 1433 1012 1405 1015 "},">":{"x_min":31.546875,"x_max":290.296875,"ha":321,"o":"m 290 547 l 290 552 q 190 674 241 619 q 86 782 138 729 q 77 780 80 787 q 57 754 68 766 q 34 733 47 743 q 33 725 29 727 q 70 688 41 716 q 128 629 98 661 q 181 572 158 598 q 205 541 205 547 q 179 502 205 534 q 120 429 152 469 q 69 366 93 395 q 38 322 45 337 q 40 315 36 318 q 47 315 44 312 q 151 404 105 359 q 241 497 197 450 q 265 522 254 509 q 290 547 277 534 "},"v":{"x_min":31.609375,"x_max":833.40625,"ha":864,"o":"m 833 848 l 832 859 q 818 859 825 859 q 805 857 812 858 l 807 857 q 722 852 765 852 q 643 857 682 852 l 644 857 q 630 858 637 858 q 616 859 623 858 q 612 855 613 861 q 613 848 611 850 q 627 845 618 847 q 647 839 637 843 q 663 831 657 836 q 670 820 670 826 q 653 730 670 787 q 609 607 636 673 q 553 472 583 541 q 497 343 523 402 q 455 247 472 286 q 436 297 448 268 q 405 370 425 326 q 352 502 380 431 q 301 636 325 572 q 261 750 277 701 q 245 819 245 800 q 252 829 245 825 q 266 836 258 833 q 283 842 275 840 q 295 844 291 844 q 300 850 300 844 q 295 855 300 855 q 210 855 252 854 q 126 859 168 857 q 82 861 104 861 q 37 863 61 862 q 31 860 33 863 q 34 854 30 857 q 56 844 45 847 q 76 838 68 841 q 104 829 91 834 q 127 804 116 823 q 209 637 175 727 q 277 451 244 547 q 345 267 309 358 q 433 88 381 176 q 438 86 436 86 q 443 88 441 86 q 461 129 450 102 q 488 192 473 156 q 522 270 504 227 q 559 358 540 312 q 625 513 591 434 q 688 659 659 593 q 737 770 716 726 q 763 822 758 815 q 787 837 775 833 q 813 844 800 841 q 833 848 819 845 "},"\n":{"x_min":30.5625,"x_max":343.078125,"ha":374,"o":"m 343 1147 q 324 1178 336 1162 q 293 1194 312 1194 q 259 1174 277 1194 q 224 1128 241 1154 q 191 1077 206 1102 q 166 1038 176 1051 q 205 1068 183 1051 q 251 1103 227 1086 q 299 1133 275 1120 q 343 1147 323 1145 m 194 1158 q 176 1178 187 1169 q 151 1187 165 1187 q 112 1169 129 1187 q 81 1127 95 1151 q 55 1077 68 1102 q 30 1038 43 1052 q 110 1100 70 1069 q 194 1158 150 1132 "},"&":{"x_min":30.5625,"x_max":957.015625,"ha":988,"o":"m 957 93 l 954 104 q 794 160 868 115 q 659 266 720 205 q 693 323 677 290 q 721 393 708 356 q 744 465 734 429 q 761 530 754 501 q 758 536 761 533 q 700 557 730 551 q 640 563 670 563 q 581 555 608 563 q 577 550 577 554 q 581 545 577 547 q 647 519 620 540 q 673 456 673 498 q 655 372 673 416 q 615 293 637 329 q 590 315 604 302 q 561 341 576 327 q 454 442 512 386 q 345 558 395 498 q 260 677 294 618 q 226 786 226 736 q 264 882 226 844 q 361 919 302 919 q 419 909 390 919 q 470 879 448 898 q 504 835 491 861 q 515 779 516 809 l 513 757 q 518 752 513 752 q 525 755 522 751 q 543 859 543 804 q 533 941 543 904 q 529 945 533 945 q 457 965 494 959 q 384 970 420 970 q 291 953 337 970 q 209 904 245 936 q 150 831 172 873 q 127 738 127 788 q 146 660 127 695 q 193 597 165 625 q 131 542 161 570 q 80 481 102 513 q 44 411 58 448 q 30 327 30 373 q 56 222 30 269 q 122 143 81 176 q 215 93 163 111 q 322 75 268 75 q 463 111 397 75 q 588 190 530 147 q 644 145 618 165 q 697 111 670 125 q 756 91 725 98 q 827 84 787 84 l 836 84 q 866 84 848 84 q 902 85 884 84 q 936 88 920 86 q 957 93 951 90 m 550 220 q 463 152 512 179 q 358 125 413 125 q 269 143 311 125 q 195 194 227 162 q 145 268 163 226 q 126 356 126 309 q 151 463 126 412 q 213 555 176 515 q 371 379 288 463 q 550 220 454 295 "},"I":{"x_min":30.5625,"x_max":384.75,"ha":415,"o":"m 384 2 l 384 13 q 288 52 316 20 q 261 155 261 84 l 261 930 q 268 970 261 955 q 287 993 275 984 q 317 1008 300 1002 q 355 1018 334 1013 q 358 1025 359 1019 q 352 1029 356 1030 q 277 1021 315 1023 q 200 1019 238 1019 q 34 1027 115 1019 q 30 1022 30 1027 q 34 1016 30 1018 q 104 993 75 1011 q 134 929 134 975 l 134 150 q 40 12 134 48 q 36 5 36 9 q 41 1 37 1 q 147 3 94 2 q 254 4 201 4 q 318 4 286 4 q 384 2 351 4 "},"Ð":{"x_min":0,"x_max":0,"ha":501},"G":{"x_min":62.5,"x_max":1080.640625,"ha":1079,"o":"m 1080 497 l 1079 508 q 914 513 995 512 q 750 515 833 515 q 744 511 745 515 q 747 505 743 508 q 769 494 758 498 q 791 487 780 490 q 838 467 818 479 q 859 422 859 455 l 859 109 q 779 64 826 75 q 686 54 732 54 q 486 95 579 54 q 327 206 394 136 q 220 370 259 276 q 181 569 181 463 q 217 747 181 666 q 313 886 252 829 q 457 976 375 944 q 636 1008 540 1008 q 745 995 693 1008 q 841 953 798 982 q 912 882 883 925 q 952 779 941 838 q 959 775 954 775 q 963 780 963 776 q 966 797 965 788 q 969 816 968 807 q 983 913 976 865 q 993 1011 990 961 q 987 1016 993 1016 q 932 1023 959 1019 q 877 1032 905 1027 q 753 1047 816 1040 q 627 1054 690 1054 q 408 1021 511 1054 q 228 924 305 988 q 106 764 151 859 q 62 545 62 669 q 95 342 62 438 q 190 170 129 245 q 341 47 252 94 q 538 -8 429 0 q 662 -12 601 -12 q 745 -10 702 -12 q 829 0 787 -8 q 911 22 872 6 q 984 62 951 37 q 987 66 987 65 l 987 418 q 1016 474 987 458 q 1080 497 1044 490 "},"`":{"x_min":30.875,"x_max":288.90625,"ha":319,"o":"m 288 1041 q 254 1062 269 1051 q 223 1086 240 1073 q 161 1132 194 1109 q 98 1154 129 1154 q 62 1143 79 1154 q 33 1118 45 1133 q 34 1109 27 1112 q 54 1102 44 1105 q 75 1094 65 1098 q 178 1055 126 1073 q 286 1032 230 1037 l 288 1041 "},"·":{"x_min":30.5625,"x_max":148.625,"ha":179,"o":"m 148 529 q 130 576 148 554 q 86 598 112 598 q 45 580 61 598 q 30 538 30 562 q 43 493 30 516 q 81 469 56 469 q 127 486 105 469 q 148 529 148 504 "},"r":{"x_min":31.15625,"x_max":791.734375,"ha":822,"o":"m 791 106 l 787 118 q 705 132 745 112 q 627 188 665 152 q 556 267 590 223 q 491 352 522 311 q 452 406 470 380 q 419 448 434 431 q 502 551 465 491 q 538 677 538 611 q 519 763 538 727 q 468 822 500 800 q 394 854 436 844 q 309 865 352 865 l 36 865 q 31 860 31 865 q 34 854 30 855 q 89 821 66 845 q 112 765 112 797 l 112 211 q 93 151 112 179 q 44 109 73 123 q 42 102 40 106 q 48 98 44 97 q 110 105 80 102 q 172 108 140 108 q 235 106 204 108 q 298 101 266 104 l 298 112 q 234 145 258 116 q 209 213 209 173 l 209 411 q 230 413 220 413 q 252 413 241 413 q 320 400 290 413 q 375 363 350 386 q 422 311 401 340 q 463 254 444 283 q 507 191 484 222 q 556 137 530 161 q 616 98 583 113 q 691 83 650 83 q 742 89 716 83 q 791 106 768 95 m 440 626 q 410 509 440 551 q 302 466 380 466 q 256 468 279 466 q 211 473 234 469 l 211 819 q 243 828 226 826 q 276 830 259 830 q 347 811 316 830 q 398 763 377 793 q 429 698 419 734 q 440 626 440 662 "},"¿":{"x_min":30.5625,"x_max":458.375,"ha":489,"o":"m 326 900 q 310 945 326 923 q 269 968 294 968 q 230 952 245 968 q 215 912 215 936 q 229 869 215 891 q 266 847 243 847 q 307 861 288 847 q 326 900 326 876 m 458 204 q 450 244 458 225 q 431 281 443 263 q 419 221 433 252 q 382 163 405 190 q 330 120 359 137 q 270 104 301 104 q 218 120 243 104 q 173 161 193 136 q 142 215 154 186 q 130 269 130 244 q 146 343 130 304 q 186 422 162 383 q 238 499 209 462 q 290 566 266 536 q 329 618 313 597 q 345 650 345 640 q 336 680 345 663 q 313 713 327 697 q 285 742 300 729 q 258 759 270 755 q 277 700 277 732 q 259 627 277 663 q 213 552 241 590 q 154 475 186 513 q 94 396 122 436 q 48 317 66 356 q 30 238 30 277 q 51 170 30 201 q 104 115 72 138 q 175 78 137 91 q 245 65 212 65 q 312 72 275 65 q 381 97 350 80 q 436 140 413 113 q 458 204 458 166 "},"x":{"x_min":30.5625,"x_max":734.78125,"ha":765,"o":"m 734 113 q 668 151 700 123 q 609 216 637 179 q 554 298 580 254 q 505 386 529 343 q 467 454 486 420 q 427 518 448 488 q 454 559 440 536 q 486 611 469 583 q 535 689 509 648 q 588 765 561 730 q 643 822 615 800 q 701 847 672 844 l 701 858 q 608 854 655 854 q 551 856 579 854 q 494 861 523 858 q 489 856 490 861 q 493 850 488 851 q 525 832 506 844 q 543 805 543 820 q 534 778 543 794 q 513 743 526 762 q 486 703 501 725 q 455 661 470 682 q 419 609 436 633 q 393 568 402 584 q 366 614 383 587 q 333 668 350 641 q 309 707 322 686 q 284 749 295 729 q 266 786 273 769 q 258 812 258 804 q 270 839 258 829 q 298 854 283 850 q 302 860 302 855 q 297 865 301 865 q 265 863 281 865 q 233 861 248 862 q 195 857 213 858 q 156 855 176 855 q 104 857 130 855 q 54 861 79 858 q 49 856 50 861 q 52 850 48 851 q 123 815 90 843 q 186 747 156 787 q 240 663 215 708 q 286 576 265 618 q 306 535 295 556 q 330 490 318 513 q 302 443 319 470 q 269 387 286 416 q 215 295 244 343 q 157 209 187 248 q 95 142 127 169 q 30 113 63 115 l 30 102 q 83 106 58 105 q 136 108 108 108 q 188 106 163 108 q 241 102 213 105 l 241 113 q 204 131 218 116 q 217 177 205 150 q 245 236 229 205 q 281 299 262 266 q 319 361 301 331 q 345 402 333 383 q 366 436 358 420 q 374 422 370 429 q 387 401 377 416 q 429 331 405 370 q 476 253 454 291 q 515 184 498 215 q 536 138 531 152 l 512 112 q 511 106 509 109 q 516 102 512 102 q 566 106 541 105 q 619 108 591 108 q 677 106 648 108 q 733 102 705 105 l 734 113 "},"º":{"x_min":30.5625,"x_max":472.265625,"ha":503,"o":"m 472 747 q 456 832 472 791 q 412 903 440 872 q 345 953 384 934 q 261 972 306 972 q 172 956 215 972 q 99 912 130 940 q 49 844 68 884 q 30 757 30 804 q 43 679 30 718 q 79 611 55 641 q 138 561 104 580 q 213 541 172 541 q 254 547 234 541 q 293 559 273 554 q 366 584 333 570 q 422 617 398 597 q 459 668 445 637 q 472 747 472 700 m 395 761 q 387 704 395 736 q 363 645 379 673 q 325 599 348 618 q 272 580 301 580 q 200 598 231 580 q 145 645 168 616 q 111 709 123 673 q 100 783 100 745 q 138 897 100 851 q 248 943 177 943 q 312 926 284 943 q 359 884 340 909 q 386 825 377 858 q 395 761 395 793 "},"h":{"x_min":30.5625,"x_max":815.34375,"ha":846,"o":"m 815 111 q 747 143 768 119 q 726 213 726 166 l 726 783 q 744 828 726 818 q 793 844 762 838 q 796 850 797 845 q 791 855 795 855 q 735 853 763 854 q 679 852 707 852 q 550 857 616 852 q 545 852 545 857 q 548 845 544 847 q 559 843 554 844 q 569 840 563 841 q 611 824 594 833 q 629 782 629 815 l 629 545 l 204 545 l 204 787 q 224 830 204 815 q 269 845 244 845 q 273 851 273 845 q 269 857 273 857 l 240 857 q 193 856 216 857 q 145 855 169 855 q 30 859 88 855 l 30 848 q 82 832 58 847 q 106 786 106 816 l 106 194 q 104 158 106 172 q 95 135 102 144 q 75 121 88 126 q 38 112 61 116 q 35 106 34 111 q 40 101 36 101 q 53 100 45 101 q 66 100 61 100 q 102 98 84 98 q 137 98 120 98 q 172 99 152 98 q 208 100 193 100 q 250 101 230 101 q 293 101 270 101 q 297 106 297 101 q 293 112 297 112 q 202 208 202 120 l 202 500 l 629 500 l 629 211 q 616 145 629 166 q 561 112 604 125 q 557 106 556 111 q 562 101 558 101 q 616 103 590 102 q 668 104 641 104 q 813 100 740 104 l 815 111 "},"\u0005":{"x_min":30.5625,"x_max":344.46875,"ha":375,"o":"m 344 1161 q 278 1106 316 1129 q 195 1083 240 1083 q 123 1106 155 1083 q 70 1161 91 1129 q 43 1139 56 1152 q 30 1108 30 1126 q 46 1078 30 1090 q 84 1060 62 1066 q 127 1052 105 1054 q 162 1050 150 1050 q 219 1055 188 1050 q 276 1073 250 1061 q 321 1107 302 1086 q 344 1161 340 1129 "},"\b":{"x_min":30.5625,"x_max":248.625,"ha":279,"o":"m 248 1118 q 222 1175 248 1154 q 162 1197 197 1197 q 115 1188 138 1197 q 72 1166 91 1180 q 42 1129 54 1151 q 30 1083 30 1108 q 47 1036 30 1055 q 91 1016 63 1016 q 119 1021 105 1016 q 144 1033 133 1026 q 181 1040 162 1034 q 214 1056 200 1045 q 238 1082 229 1066 q 248 1118 248 1097 m 195 1105 q 181 1070 195 1087 q 148 1054 166 1054 q 100 1071 122 1054 q 77 1116 77 1088 q 96 1154 77 1138 q 136 1169 115 1169 q 178 1149 161 1169 q 195 1105 195 1129 "},".":{"x_min":30.5625,"x_max":156.953125,"ha":188,"o":"m 156 152 q 137 202 156 179 q 90 226 118 226 q 46 206 62 226 q 30 162 30 187 q 44 113 30 138 q 86 87 58 87 q 134 106 111 87 q 156 152 156 125 "},";":{"x_min":30.5625,"x_max":156.953125,"ha":188,"o":"m 156 569 q 137 620 156 597 q 90 643 118 643 q 45 624 61 643 q 30 577 30 605 q 43 529 30 554 q 86 504 56 504 q 134 523 112 504 q 156 569 156 543 m 147 161 q 136 209 147 186 q 93 238 125 231 q 60 219 79 231 q 41 187 41 206 q 45 172 41 180 q 52 152 48 163 q 65 123 59 138 q 70 90 70 108 q 61 42 70 65 q 41 -1 52 19 q 45 -9 36 -9 q 86 10 68 -9 q 119 57 105 30 q 140 113 133 84 q 147 161 147 143 "},"f":{"x_min":31.609375,"x_max":476.8125,"ha":508,"o":"m 476 869 q 474 876 477 873 q 468 876 470 879 q 409 861 443 862 q 343 861 375 859 q 327 861 334 861 q 312 862 319 862 l 213 862 q 37 866 125 862 q 31 863 33 866 q 34 857 30 859 q 56 846 45 850 q 73 840 66 843 q 102 828 90 836 q 115 788 115 820 l 115 208 q 114 167 115 183 q 107 140 113 151 q 87 124 101 130 q 48 113 73 118 q 45 107 44 112 q 50 102 45 102 l 58 102 q 89 103 73 102 q 122 105 105 104 q 150 108 136 106 q 177 109 163 109 q 205 109 191 109 q 234 106 219 108 q 263 104 250 105 q 293 102 277 102 l 302 102 l 302 113 q 266 122 283 113 q 237 144 250 130 q 218 176 225 158 q 211 211 211 194 l 211 488 l 327 488 q 396 471 372 488 q 419 408 420 454 q 424 403 419 404 q 430 406 429 402 q 442 479 437 443 q 450 555 447 516 q 446 561 450 559 q 440 559 443 562 q 420 543 433 551 q 398 534 408 534 l 211 534 l 211 807 q 241 808 225 807 q 272 812 258 809 q 309 817 291 815 q 345 819 326 819 q 415 800 390 819 q 440 736 440 782 q 445 731 440 732 q 451 734 450 730 l 476 869 "},"A":{"x_min":31.15625,"x_max":1066.75,"ha":1097,"o":"m 1062 5 q 1066 11 1066 5 q 1062 16 1066 16 q 980 39 1015 20 q 922 101 945 58 q 821 309 869 201 q 728 527 773 416 q 641 750 683 638 q 562 965 600 861 q 547 1007 555 986 q 531 1047 538 1027 q 526 1051 530 1051 q 520 1047 522 1051 q 447 850 484 950 q 376 651 411 750 q 281 384 329 516 q 181 120 234 252 q 125 45 162 72 q 34 11 88 19 q 31 4 30 9 q 36 0 31 0 q 65 2 51 1 q 95 4 80 2 q 144 8 119 6 q 194 9 169 9 q 241 8 218 9 q 288 4 265 6 q 312 2 300 2 q 336 1 325 2 l 336 12 q 311 15 325 13 q 287 23 298 18 q 268 38 276 29 q 261 61 261 47 q 274 129 261 81 q 304 228 287 176 q 340 329 322 280 q 368 401 358 377 l 662 401 q 730 224 695 312 q 798 47 765 136 l 723 12 q 720 4 719 9 q 726 1 722 0 q 743 2 733 2 q 759 4 752 2 q 829 9 794 6 q 898 11 863 11 q 927 9 912 11 q 957 6 943 8 q 992 3 973 4 q 1029 4 1011 2 l 1062 5 m 638 461 l 386 461 q 439 622 415 543 q 491 784 463 701 q 503 821 497 802 q 516 859 509 840 l 638 461 "},"6":{"x_min":30.5625,"x_max":569.484375,"ha":600,"o":"m 569 323 q 557 411 569 366 q 521 493 545 456 q 460 554 497 530 q 373 577 423 577 q 288 558 329 577 q 213 513 248 538 q 212 506 211 511 q 218 504 213 501 q 259 518 237 512 q 304 523 281 523 q 383 503 350 523 q 438 451 416 483 q 472 379 461 419 q 483 298 483 338 q 476 234 483 268 q 454 174 469 201 q 413 129 438 147 q 352 112 388 112 q 260 135 302 112 q 187 194 218 158 q 139 277 156 230 q 122 370 122 323 q 150 527 122 448 q 225 678 179 607 q 332 811 272 750 q 455 913 393 872 q 456 921 459 916 q 450 923 454 926 q 296 832 372 890 q 161 701 220 775 q 66 541 102 627 q 30 366 30 455 q 56 245 30 302 q 125 144 81 187 q 227 75 169 101 q 350 50 286 50 q 446 74 405 50 q 514 138 487 98 q 555 226 541 177 q 569 323 569 275 "},"O":{"x_min":30.5625,"x_max":1105.640625,"ha":1136,"o":"m 1105 484 q 1061 710 1105 605 q 941 893 1018 815 q 759 1015 863 970 q 534 1059 655 1059 q 522 1059 529 1059 q 511 1058 516 1059 q 286 986 377 1030 q 137 874 194 943 q 55 707 80 805 q 30 472 30 608 q 54 351 30 411 q 118 237 77 291 q 213 136 159 183 q 326 54 266 88 q 448 0 386 19 q 569 -19 511 -19 q 773 18 676 -19 q 944 122 870 55 q 1061 282 1018 190 q 1105 484 1105 375 m 984 487 q 959 315 984 397 q 882 172 933 234 q 757 74 832 111 q 587 37 683 37 q 404 84 484 37 q 270 204 325 130 q 186 370 215 277 q 158 556 158 463 q 184 729 158 648 q 262 871 211 811 q 388 967 313 932 q 561 1002 463 1002 q 743 957 663 1002 q 875 837 822 911 q 957 672 929 763 q 984 487 984 580 "},"n":{"x_min":31.75,"x_max":845.90625,"ha":876,"o":"m 845 850 l 843 861 q 827 861 836 861 q 812 862 819 862 q 774 863 793 863 q 737 862 755 862 q 679 862 708 862 q 619 866 651 862 q 614 863 616 868 q 615 857 612 859 q 631 847 622 850 q 651 844 640 845 q 670 840 661 843 q 688 829 680 837 q 702 807 697 822 q 707 769 707 793 q 708 642 707 709 q 711 515 709 575 q 713 387 712 450 q 713 261 713 325 l 713 256 q 426 571 568 419 q 133 880 284 723 q 129 882 131 883 q 125 877 126 880 l 113 855 l 113 205 q 100 159 113 173 q 70 136 87 144 q 53 126 62 131 q 33 111 44 120 q 32 104 30 108 q 38 101 34 100 q 91 109 65 105 q 143 112 118 112 q 182 111 162 112 q 222 106 202 109 q 249 104 236 105 q 276 101 262 102 q 281 104 280 101 q 279 111 281 108 q 252 125 263 122 q 230 131 241 129 q 211 136 220 133 q 196 148 202 140 q 186 171 190 156 q 181 209 181 186 q 180 316 181 263 q 176 422 179 369 q 172 527 173 475 q 170 633 170 580 q 175 705 170 668 q 209 666 194 684 q 244 626 225 647 q 363 489 301 559 q 491 350 426 419 q 622 215 555 281 q 755 93 688 150 q 761 92 758 90 q 765 97 765 94 q 775 254 772 176 q 777 413 777 333 l 777 470 l 776 805 q 797 834 776 826 q 838 848 819 843 q 842 849 841 850 q 845 850 843 848 "},"3":{"x_min":31.15625,"x_max":533.375,"ha":564,"o":"m 533 368 q 518 441 533 408 q 477 497 502 473 q 419 540 452 522 q 350 569 386 558 q 393 607 372 587 q 431 651 415 627 q 459 701 448 675 q 469 758 469 727 q 456 827 469 795 q 419 883 443 859 q 363 920 395 907 q 294 933 331 933 q 183 919 240 933 q 77 886 126 905 q 75 880 75 886 q 70 841 72 861 q 69 801 69 820 q 70 770 69 786 q 76 740 72 755 q 82 736 77 736 q 87 741 87 737 q 132 838 94 800 q 230 876 170 876 q 288 866 261 876 q 337 836 316 855 q 370 791 358 818 q 383 734 383 765 q 370 668 383 694 q 339 622 358 641 q 297 592 320 604 q 252 570 273 580 q 217 553 233 562 q 191 533 201 544 q 194 525 187 527 q 274 498 233 516 q 350 453 315 480 q 406 389 384 426 q 429 309 429 352 q 408 234 429 269 q 355 174 387 200 q 284 134 323 148 q 206 119 244 119 q 144 131 170 119 q 101 166 118 144 q 76 217 84 188 q 66 279 68 245 q 62 284 66 283 q 55 280 58 284 q 36 213 43 248 q 31 143 29 179 l 33 112 q 36 108 33 111 q 187 56 101 56 q 306 82 245 56 q 418 151 368 108 q 501 250 469 194 q 533 368 533 306 "},"9":{"x_min":30.5625,"x_max":552.828125,"ha":583,"o":"m 552 620 q 529 741 552 682 q 463 845 505 800 q 366 920 422 891 q 245 948 309 948 q 152 923 193 948 q 85 859 112 898 q 44 770 58 819 q 30 676 30 722 q 42 595 30 636 q 77 522 54 554 q 135 470 100 490 q 216 450 170 450 q 307 469 263 450 q 388 518 351 488 q 390 525 393 520 q 383 526 387 529 q 341 506 363 515 q 293 498 318 498 q 216 520 250 498 q 160 577 183 543 q 125 652 137 611 q 113 732 113 694 q 142 832 113 793 q 236 872 170 872 q 329 854 288 872 q 397 804 369 836 q 438 729 425 772 q 452 636 452 686 q 427 476 452 556 q 356 321 401 395 q 254 184 312 247 q 130 80 195 122 q 129 72 126 77 q 136 70 131 68 q 290 160 215 104 q 423 288 365 216 q 517 445 481 361 q 552 620 552 530 "},"l":{"x_min":30.5625,"x_max":509.765625,"ha":540,"o":"m 509 245 l 498 248 q 430 170 475 200 q 333 140 386 140 q 242 171 279 140 q 205 261 205 202 l 205 777 q 229 827 205 807 q 281 852 252 847 q 285 859 286 854 q 280 863 284 863 q 133 859 205 859 q 81 859 106 859 q 30 861 56 859 l 30 850 q 86 829 63 848 q 108 776 108 809 l 108 211 q 104 181 108 198 q 91 150 100 165 q 70 126 83 136 q 43 115 58 116 q 38 109 38 115 q 43 104 38 104 q 57 104 50 104 q 72 105 65 105 q 163 108 118 106 q 255 109 209 109 q 367 107 312 109 q 477 100 422 105 q 481 102 477 100 q 486 108 486 104 q 484 113 486 112 q 502 170 498 141 q 508 229 505 198 q 509 237 508 233 q 509 245 509 241 "},"4":{"x_min":31.15625,"x_max":643.109375,"ha":674,"o":"m 643 388 q 640 412 643 398 q 634 416 640 419 q 568 404 601 404 q 540 405 552 404 q 513 413 527 406 l 513 929 q 510 934 513 933 q 504 933 506 936 q 434 858 476 904 q 345 758 393 812 q 247 645 297 704 q 154 529 197 586 q 78 425 111 473 q 31 343 45 376 q 36 334 29 334 l 418 334 q 417 297 416 315 q 418 259 418 280 l 418 219 q 416 178 418 200 q 405 137 413 156 q 380 114 397 119 q 347 108 363 109 q 323 106 333 106 q 306 94 313 105 q 311 86 301 86 l 409 86 l 616 87 q 622 90 620 87 q 619 97 623 94 q 581 114 597 109 q 554 122 565 119 q 534 127 541 123 q 521 140 526 130 q 514 169 516 150 q 512 225 512 188 q 512 250 512 237 q 513 275 512 262 q 516 305 515 290 q 515 336 516 320 l 538 336 q 573 336 555 336 q 606 342 591 337 q 632 357 622 347 q 643 388 643 368 m 415 408 l 125 408 q 270 591 200 501 q 415 773 340 680 l 415 408 "},"p":{"x_min":31.15625,"x_max":525.046875,"ha":556,"o":"m 525 682 q 511 769 525 734 q 470 824 497 804 q 406 852 444 844 q 322 861 369 861 l 200 861 q 119 861 159 861 q 36 866 79 862 q 31 861 31 866 q 34 855 30 857 q 87 829 62 848 q 112 782 112 811 l 112 212 q 111 171 112 188 q 104 143 111 154 q 84 125 98 131 q 45 113 70 118 q 42 107 41 112 q 47 102 43 102 q 93 101 70 101 q 140 101 116 101 l 298 101 q 302 106 302 101 q 298 112 302 112 q 230 134 251 115 q 209 200 209 154 l 209 812 q 281 829 243 829 q 349 811 319 829 q 400 766 379 794 q 431 704 420 738 q 443 636 443 670 q 397 509 443 558 q 272 459 351 459 l 248 459 q 243 454 244 459 q 247 448 243 450 q 306 441 279 441 q 394 462 354 441 q 463 517 434 483 q 509 594 493 551 q 525 682 525 637 "},"Ü":{"x_min":31.15625,"x_max":1051.46875,"ha":1082,"o":"m 726 1072 q 711 1116 726 1094 q 672 1137 695 1137 q 637 1123 652 1137 q 622 1088 622 1108 q 645 1044 622 1062 q 694 1026 668 1026 q 717 1043 708 1032 q 726 1072 726 1055 m 502 1072 q 487 1116 502 1094 q 448 1137 472 1137 q 414 1123 430 1137 q 398 1088 398 1108 q 421 1044 398 1062 q 470 1026 444 1026 q 493 1043 483 1032 q 502 1072 502 1055 m 1051 1018 l 1050 1029 l 1033 1029 q 972 1029 1001 1029 q 912 1030 943 1030 l 847 1030 q 798 1030 823 1030 q 750 1033 775 1030 q 745 1028 745 1033 q 748 1022 744 1023 q 831 987 802 1013 q 859 904 859 961 q 859 761 859 832 q 861 619 859 690 q 862 476 862 548 q 862 334 862 405 q 839 216 862 269 q 777 125 816 163 q 683 66 737 87 q 565 45 629 45 q 448 65 502 45 q 354 123 394 86 q 293 213 315 161 q 270 329 270 265 q 270 473 270 401 q 272 618 270 545 q 273 761 273 690 q 273 905 273 832 q 282 939 273 923 q 306 970 291 955 q 336 995 320 984 q 368 1015 352 1007 q 370 1022 372 1018 q 365 1026 369 1026 q 309 1025 337 1025 q 255 1025 283 1025 q 146 1026 201 1025 q 36 1030 91 1027 q 31 1025 31 1030 q 34 1019 30 1020 q 115 984 86 1007 q 145 904 145 961 q 145 866 145 888 q 144 815 144 843 q 143 723 144 775 q 143 619 143 672 q 143 505 143 562 q 145 400 144 448 q 150 318 147 352 q 158 269 154 283 q 220 152 179 205 q 315 61 261 100 q 433 2 369 23 q 563 -19 497 -19 q 725 13 652 -19 q 850 104 798 47 q 929 238 901 162 q 957 401 957 315 l 957 905 q 983 978 957 945 q 1051 1018 1009 1011 "}}}
